<?xml version="1.0" encoding="utf-8"?>
<!-- Generator: Adobe Illustrator 21.1.0, SVG Export Plug-In . SVG Version: 6.00 Build 0)  -->
<svg version="1.1" id="Layer_1" xmlns="http://www.w3.org/2000/svg" xmlns:xlink="http://www.w3.org/1999/xlink" x="0px" y="0px"
	 viewBox="0 0 1056.1 1624.6" style="enable-background:new 0 0 1056.1 1624.6;" xml:space="preserve">
<style type="text/css">
	.st0{fill:#BABBBE;}
	.st1{stroke:#FFFFFF;stroke-width:0.7614;stroke-miterlimit:10;}
	.st2{stroke:#FFFFFF;stroke-width:0.2635;stroke-miterlimit:10;}
	.st3{fill:#FFFFFF;}
</style>
<polygon id="GRAY_ARROW_BACK" class="st0" points="172.8,1531.6 125.9,1613.9 79,1531.6 79,86.3 172.8,86.3 "/>
<polygon id="GRAY_ARROW_BACK_1_" class="st0" points="444.5,1531.6 397.6,1613.9 350.7,1531.6 350.7,86.3 444.5,86.3 "/>
<polygon id="GRAY_ARROW_BACK_2_" class="st0" points="709.3,1531.6 662.4,1613.9 615.5,1531.6 615.5,86.3 709.3,86.3 "/>
<polygon id="GRAY_ARROW_BACK_3_" class="st0" points="981.1,1531.6 934.2,1613.9 887.3,1531.6 887.3,86.3 981.1,86.3 "/>
<g>
	<g id="TIME_A">
		<g>
			<g>
				<g>
					<rect x="56.8" y="251.6" class="st1" width="138.2" height="77.8"/>
					<rect x="56.4" y="335" class="st2" width="29.8" height="43.2"/>
					<rect x="92.8" y="335" class="st2" width="29.8" height="43.2"/>
					<rect x="129.2" y="335" class="st2" width="29.8" height="43.2"/>
					<rect x="165.5" y="335" class="st2" width="29.8" height="43.2"/>
					<g>
						<path class="st3" d="M75.1,356.8h-7.5l-1,3.5h-6.8l8.1-21.5H75l8.1,21.5h-6.9L75.1,356.8z M73.7,352.2l-2.4-7.7l-2.3,7.7H73.7
							z"/>
					</g>
					<g>
						<path class="st3" d="M98.2,338.9h12.4c2.1,0,3.7,0.5,4.8,1.5s1.7,2.3,1.7,3.8c0,1.3-0.4,2.4-1.2,3.3c-0.5,0.6-1.3,1.1-2.3,1.4
							c1.5,0.4,2.7,1,3.4,1.9s1.1,2,1.1,3.4c0,1.1-0.3,2.1-0.8,3s-1.2,1.6-2.1,2.1c-0.6,0.3-1.4,0.6-2.5,0.7c-1.5,0.2-2.5,0.3-3,0.3
							H98.2V338.9z M104.9,347.3h2.9c1,0,1.8-0.2,2.2-0.5s0.6-0.9,0.6-1.5c0-0.6-0.2-1.1-0.6-1.5s-1.1-0.5-2.1-0.5h-2.9V347.3z
							 M104.9,355.8h3.4c1.1,0,1.9-0.2,2.4-0.6s0.7-0.9,0.7-1.6c0-0.6-0.2-1.1-0.7-1.5s-1.3-0.6-2.4-0.6h-3.4V355.8z"/>
					</g>
					<g>
						<path class="st3" d="M148.9,351.6l5.8,1.8c-0.4,1.6-1,3-1.8,4.1s-1.9,1.9-3.1,2.5s-2.8,0.8-4.8,0.8c-2.3,0-4.2-0.3-5.7-1
							c-1.5-0.7-2.8-1.9-3.8-3.6c-1.1-1.7-1.6-3.9-1.6-6.6c0-3.6,0.9-6.3,2.8-8.2c1.9-1.9,4.6-2.9,8-2.9c2.7,0,4.8,0.5,6.4,1.6
							s2.7,2.8,3.4,5l-5.9,1.3c-0.2-0.7-0.4-1.1-0.6-1.4c-0.4-0.5-0.8-0.9-1.4-1.2s-1.1-0.4-1.8-0.4c-1.5,0-2.7,0.6-3.5,1.8
							c-0.6,0.9-0.9,2.3-0.9,4.2c0,2.4,0.4,4,1.1,4.9c0.7,0.9,1.7,1.3,3,1.3c1.3,0,2.2-0.4,2.9-1.1S148.6,353,148.9,351.6z"/>
					</g>
					<g>
						<path class="st3" d="M171.1,338.9h9.9c1.9,0,3.5,0.3,4.7,0.8s2.2,1.3,3,2.3s1.3,2.1,1.7,3.4s0.5,2.7,0.5,4.2
							c0,2.3-0.3,4.1-0.8,5.3s-1.2,2.3-2.2,3.2s-1.9,1.4-3,1.7c-1.5,0.4-2.8,0.6-4,0.6h-9.9V338.9z M177.7,343.8v11.7h1.6
							c1.4,0,2.4-0.2,3-0.5s1-0.8,1.4-1.6s0.5-2,0.5-3.7c0-2.3-0.4-3.8-1.1-4.7s-2-1.3-3.7-1.3H177.7z"/>
					</g>
				</g>
				<g>
					<polygon points="86.9,405.8 108,405.8 108,383.8 143.4,383.8 143.4,405.8 164.5,405.8 125.7,473.1 					"/>
					<path class="st3" d="M140.1,387.1v22h18.7l-33.1,57.3l-33.1-57.3h18.7v-22H140.1 M146.7,380.5h-6.6h-28.7h-6.6v6.6v15.4H92.6
						H81.1l5.7,10l33.1,57.3l5.7,9.9l5.7-9.9l33.1-57.3l5.7-10h-11.5h-12.1v-15.4V380.5L146.7,380.5z"/>
				</g>
			</g>
			<rect x="56.4" y="86.3" class="st2" width="29.8" height="43.2"/>
			<rect x="92.8" y="86.3" class="st2" width="29.8" height="43.2"/>
			<rect x="129.2" y="86.3" class="st2" width="29.8" height="43.2"/>
			<rect x="165.5" y="86.3" class="st2" width="29.8" height="43.2"/>
			<g>
				<path class="st3" d="M75.1,108.2h-7.5l-1,3.5h-6.8l8.1-21.5H75l8.1,21.5h-6.9L75.1,108.2z M73.7,103.5l-2.4-7.7l-2.3,7.7H73.7z"
					/>
			</g>
			<g>
				<path class="st3" d="M98.2,90.2h12.4c2.1,0,3.7,0.5,4.8,1.5s1.7,2.3,1.7,3.8c0,1.3-0.4,2.4-1.2,3.3c-0.5,0.6-1.3,1.1-2.3,1.4
					c1.5,0.4,2.7,1,3.4,1.9s1.1,2,1.1,3.4c0,1.1-0.3,2.1-0.8,3s-1.2,1.6-2.1,2.1c-0.6,0.3-1.4,0.6-2.5,0.7c-1.5,0.2-2.5,0.3-3,0.3
					H98.2V90.2z M104.9,98.7h2.9c1,0,1.8-0.2,2.2-0.5s0.6-0.9,0.6-1.5c0-0.6-0.2-1.1-0.6-1.5s-1.1-0.5-2.1-0.5h-2.9V98.7z
					 M104.9,107.1h3.4c1.1,0,1.9-0.2,2.4-0.6s0.7-0.9,0.7-1.6c0-0.6-0.2-1.1-0.7-1.5s-1.3-0.6-2.4-0.6h-3.4V107.1z"/>
			</g>
			<g>
				<path class="st3" d="M148.9,102.9l5.8,1.8c-0.4,1.6-1,3-1.8,4.1s-1.9,1.9-3.1,2.5s-2.8,0.8-4.8,0.8c-2.3,0-4.2-0.3-5.7-1
					c-1.5-0.7-2.8-1.9-3.8-3.6c-1.1-1.7-1.6-3.9-1.6-6.6c0-3.6,0.9-6.3,2.8-8.2c1.9-1.9,4.6-2.9,8-2.9c2.7,0,4.8,0.5,6.4,1.6
					s2.7,2.8,3.4,5l-5.9,1.3c-0.2-0.7-0.4-1.1-0.6-1.4c-0.4-0.5-0.8-0.9-1.4-1.2s-1.1-0.4-1.8-0.4c-1.5,0-2.7,0.6-3.5,1.8
					c-0.6,0.9-0.9,2.3-0.9,4.2c0,2.4,0.4,4,1.1,4.9c0.7,0.9,1.7,1.3,3,1.3c1.3,0,2.2-0.4,2.9-1.1S148.6,104.3,148.9,102.9z"/>
			</g>
			<g>
				<path class="st3" d="M171.1,90.2h9.9c1.9,0,3.5,0.3,4.7,0.8s2.2,1.3,3,2.3s1.3,2.1,1.7,3.4s0.5,2.7,0.5,4.2
					c0,2.3-0.3,4.1-0.8,5.3s-1.2,2.3-2.2,3.2s-1.9,1.4-3,1.7c-1.5,0.4-2.8,0.6-4,0.6h-9.9V90.2z M177.7,95.1v11.7h1.6
					c1.4,0,2.4-0.2,3-0.5s1-0.8,1.4-1.6s0.5-2,0.5-3.7c0-2.3-0.4-3.8-1.1-4.7s-2-1.3-3.7-1.3H177.7z"/>
			</g>
			<g>
				<polygon points="86.9,157.2 108,157.2 108,135.1 143.4,135.1 143.4,157.2 164.5,157.2 125.7,224.4 				"/>
				<path class="st3" d="M140.1,138.5v22h18.7l-33.1,57.3l-33.1-57.3h18.7v-22H140.1 M146.7,131.8h-6.6h-28.7h-6.6v6.6v15.4H92.6
					H81.1l5.7,10l33.1,57.3l5.7,9.9l5.7-9.9l33.1-57.3l5.7-10h-11.5h-12.1v-15.4V131.8L146.7,131.8z"/>
			</g>
			<g>
				<g>
					<rect x="56.8" y="493.8" class="st1" width="138.2" height="77.8"/>
					<rect x="56.4" y="577.1" class="st2" width="29.8" height="43.2"/>
					<rect x="92.8" y="577.1" class="st2" width="29.8" height="43.2"/>
					<rect x="129.2" y="577.1" class="st2" width="29.8" height="43.2"/>
					<rect x="165.5" y="577.1" class="st2" width="29.8" height="43.2"/>
					<g>
						<path class="st3" d="M75.1,599h-7.5l-1,3.5h-6.8l8.1-21.5H75l8.1,21.5h-6.9L75.1,599z M73.7,594.4l-2.4-7.7l-2.3,7.7H73.7z"/>
					</g>
					<g>
						<path class="st3" d="M98.2,581.1h12.4c2.1,0,3.7,0.5,4.8,1.5s1.7,2.3,1.7,3.8c0,1.3-0.4,2.4-1.2,3.3c-0.5,0.6-1.3,1.1-2.3,1.4
							c1.5,0.4,2.7,1,3.4,1.9s1.1,2,1.1,3.4c0,1.1-0.3,2.1-0.8,3s-1.2,1.6-2.1,2.1c-0.6,0.3-1.4,0.6-2.5,0.7c-1.5,0.2-2.5,0.3-3,0.3
							H98.2V581.1z M104.9,589.5h2.9c1,0,1.8-0.2,2.2-0.5s0.6-0.9,0.6-1.5c0-0.6-0.2-1.1-0.6-1.5s-1.1-0.5-2.1-0.5h-2.9V589.5z
							 M104.9,597.9h3.4c1.1,0,1.9-0.2,2.4-0.6s0.7-0.9,0.7-1.6c0-0.6-0.2-1.1-0.7-1.5s-1.3-0.6-2.4-0.6h-3.4V597.9z"/>
					</g>
					<g>
						<path class="st3" d="M148.9,593.8l5.8,1.8c-0.4,1.6-1,3-1.8,4.1s-1.9,1.9-3.1,2.5s-2.8,0.8-4.8,0.8c-2.3,0-4.2-0.3-5.7-1
							c-1.5-0.7-2.8-1.9-3.8-3.6c-1.1-1.7-1.6-3.9-1.6-6.6c0-3.6,0.9-6.3,2.8-8.2c1.9-1.9,4.6-2.9,8-2.9c2.7,0,4.8,0.5,6.4,1.6
							s2.7,2.8,3.4,5l-5.9,1.3c-0.2-0.7-0.4-1.1-0.6-1.4c-0.4-0.5-0.8-0.9-1.4-1.2s-1.1-0.4-1.8-0.4c-1.5,0-2.7,0.6-3.5,1.8
							c-0.6,0.9-0.9,2.3-0.9,4.2c0,2.4,0.4,4,1.1,4.9c0.7,0.9,1.7,1.3,3,1.3c1.3,0,2.2-0.4,2.9-1.1S148.6,595.1,148.9,593.8z"/>
					</g>
					<g>
						<path class="st3" d="M171.1,581.1h9.9c1.9,0,3.5,0.3,4.7,0.8s2.2,1.3,3,2.3s1.3,2.1,1.7,3.4s0.5,2.7,0.5,4.2
							c0,2.3-0.3,4.1-0.8,5.3s-1.2,2.3-2.2,3.2s-1.9,1.4-3,1.7c-1.5,0.4-2.8,0.6-4,0.6h-9.9V581.1z M177.7,585.9v11.7h1.6
							c1.4,0,2.4-0.2,3-0.5s1-0.8,1.4-1.6s0.5-2,0.5-3.7c0-2.3-0.4-3.8-1.1-4.7s-2-1.3-3.7-1.3H177.7z"/>
					</g>
				</g>
				<g>
					<polygon points="86.9,648 108,648 108,626 143.4,626 143.4,648 164.5,648 125.7,715.2 					"/>
					<path class="st3" d="M140.1,629.3v22h18.7l-33.1,57.3l-33.1-57.3h18.7v-22H140.1 M146.7,622.6h-6.6h-28.7h-6.6v6.6v15.4H92.6
						H81.1l5.7,10l33.1,57.3l5.7,9.9l5.7-9.9l33.1-57.3l5.7-10h-11.5h-12.1v-15.4V622.6L146.7,622.6z"/>
				</g>
			</g>
			<g>
				<g>
					<rect x="56.8" y="735.9" class="st1" width="138.2" height="77.8"/>
					<rect x="56.4" y="819.3" class="st2" width="29.8" height="43.2"/>
					<rect x="92.8" y="819.3" class="st2" width="29.8" height="43.2"/>
					<rect x="129.2" y="819.3" class="st2" width="29.8" height="43.2"/>
					<rect x="165.5" y="819.3" class="st2" width="29.8" height="43.2"/>
					<g>
						<path class="st3" d="M75.1,841.1h-7.5l-1,3.5h-6.8l8.1-21.5H75l8.1,21.5h-6.9L75.1,841.1z M73.7,836.5l-2.4-7.7l-2.3,7.7H73.7
							z"/>
					</g>
					<g>
						<path class="st3" d="M98.2,823.2h12.4c2.1,0,3.7,0.5,4.8,1.5s1.7,2.3,1.7,3.8c0,1.3-0.4,2.4-1.2,3.3c-0.5,0.6-1.3,1.1-2.3,1.4
							c1.5,0.4,2.7,1,3.4,1.9s1.1,2,1.1,3.4c0,1.1-0.3,2.1-0.8,3s-1.2,1.6-2.1,2.1c-0.6,0.3-1.4,0.6-2.5,0.7c-1.5,0.2-2.5,0.3-3,0.3
							H98.2V823.2z M104.9,831.6h2.9c1,0,1.8-0.2,2.2-0.5s0.6-0.9,0.6-1.5c0-0.6-0.2-1.1-0.6-1.5s-1.1-0.5-2.1-0.5h-2.9V831.6z
							 M104.9,840.1h3.4c1.1,0,1.9-0.2,2.4-0.6s0.7-0.9,0.7-1.6c0-0.6-0.2-1.1-0.7-1.5s-1.3-0.6-2.4-0.6h-3.4V840.1z"/>
					</g>
					<g>
						<path class="st3" d="M148.9,835.9l5.8,1.8c-0.4,1.6-1,3-1.8,4.1s-1.9,1.9-3.1,2.5s-2.8,0.8-4.8,0.8c-2.3,0-4.2-0.3-5.7-1
							c-1.5-0.7-2.8-1.9-3.8-3.6c-1.1-1.7-1.6-3.9-1.6-6.6c0-3.6,0.9-6.3,2.8-8.2c1.9-1.9,4.6-2.9,8-2.9c2.7,0,4.8,0.5,6.4,1.6
							s2.7,2.8,3.4,5l-5.9,1.3c-0.2-0.7-0.4-1.1-0.6-1.4c-0.4-0.5-0.8-0.9-1.4-1.2s-1.1-0.4-1.8-0.4c-1.5,0-2.7,0.6-3.5,1.8
							c-0.6,0.9-0.9,2.3-0.9,4.2c0,2.4,0.4,4,1.1,4.9c0.7,0.9,1.7,1.3,3,1.3c1.3,0,2.2-0.4,2.9-1.1S148.6,837.3,148.9,835.9z"/>
					</g>
					<g>
						<path class="st3" d="M171.1,823.2h9.9c1.9,0,3.5,0.3,4.7,0.8s2.2,1.3,3,2.3s1.3,2.1,1.7,3.4s0.5,2.7,0.5,4.2
							c0,2.3-0.3,4.1-0.8,5.3s-1.2,2.3-2.2,3.2s-1.9,1.4-3,1.7c-1.5,0.4-2.8,0.6-4,0.6h-9.9V823.2z M177.7,828.1v11.7h1.6
							c1.4,0,2.4-0.2,3-0.5s1-0.8,1.4-1.6s0.5-2,0.5-3.7c0-2.3-0.4-3.8-1.1-4.7s-2-1.3-3.7-1.3H177.7z"/>
					</g>
				</g>
				<g>
					<polygon points="86.9,890.2 108,890.2 108,868.1 143.4,868.1 143.4,890.2 164.5,890.2 125.7,957.4 					"/>
					<path class="st3" d="M140.1,871.4v22h18.7l-33.1,57.3l-33.1-57.3h18.7v-22H140.1 M146.7,864.8h-6.6h-28.7h-6.6v6.6v15.4H92.6
						H81.1l5.7,10l33.1,57.3l5.7,9.9l5.7-9.9l33.1-57.3l5.7-10h-11.5h-12.1v-15.4V864.8L146.7,864.8z"/>
				</g>
			</g>
			<g>
				<g>
					<rect x="56.8" y="978.1" class="st1" width="138.2" height="77.8"/>
					<rect x="56.4" y="1061.4" class="st2" width="29.8" height="43.2"/>
					<rect x="92.8" y="1061.4" class="st2" width="29.8" height="43.2"/>
					<rect x="129.2" y="1061.4" class="st2" width="29.8" height="43.2"/>
					<rect x="165.5" y="1061.4" class="st2" width="29.8" height="43.2"/>
					<g>
						<path class="st3" d="M75.1,1083.3h-7.5l-1,3.5h-6.8l8.1-21.5H75l8.1,21.5h-6.9L75.1,1083.3z M73.7,1078.7l-2.4-7.7l-2.3,7.7
							H73.7z"/>
					</g>
					<g>
						<path class="st3" d="M98.2,1065.4h12.4c2.1,0,3.7,0.5,4.8,1.5s1.7,2.3,1.7,3.8c0,1.3-0.4,2.4-1.2,3.3
							c-0.5,0.6-1.3,1.1-2.3,1.4c1.5,0.4,2.7,1,3.4,1.9s1.1,2,1.1,3.4c0,1.1-0.3,2.1-0.8,3s-1.2,1.6-2.1,2.1
							c-0.6,0.3-1.4,0.6-2.5,0.7c-1.5,0.2-2.5,0.3-3,0.3H98.2V1065.4z M104.9,1073.8h2.9c1,0,1.8-0.2,2.2-0.5s0.6-0.9,0.6-1.5
							c0-0.6-0.2-1.1-0.6-1.5s-1.1-0.5-2.1-0.5h-2.9V1073.8z M104.9,1082.2h3.4c1.1,0,1.9-0.2,2.4-0.6s0.7-0.9,0.7-1.6
							c0-0.6-0.2-1.1-0.7-1.5s-1.3-0.6-2.4-0.6h-3.4V1082.2z"/>
					</g>
					<g>
						<path class="st3" d="M148.9,1078.1l5.8,1.8c-0.4,1.6-1,3-1.8,4.1s-1.9,1.9-3.1,2.5s-2.8,0.8-4.8,0.8c-2.3,0-4.2-0.3-5.7-1
							c-1.5-0.7-2.8-1.9-3.8-3.6c-1.1-1.7-1.6-3.9-1.6-6.6c0-3.6,0.9-6.3,2.8-8.2c1.9-1.9,4.6-2.9,8-2.9c2.7,0,4.8,0.5,6.4,1.6
							s2.7,2.8,3.4,5l-5.9,1.3c-0.2-0.7-0.4-1.1-0.6-1.4c-0.4-0.5-0.8-0.9-1.4-1.2s-1.1-0.4-1.8-0.4c-1.5,0-2.7,0.6-3.5,1.8
							c-0.6,0.9-0.9,2.3-0.9,4.2c0,2.4,0.4,4,1.1,4.9c0.7,0.9,1.7,1.3,3,1.3c1.3,0,2.2-0.4,2.9-1.1S148.6,1079.4,148.9,1078.1z"/>
					</g>
					<g>
						<path class="st3" d="M171.1,1065.4h9.9c1.9,0,3.5,0.3,4.7,0.8s2.2,1.3,3,2.3s1.3,2.1,1.7,3.4s0.5,2.7,0.5,4.2
							c0,2.3-0.3,4.1-0.8,5.3s-1.2,2.3-2.2,3.2s-1.9,1.4-3,1.7c-1.5,0.4-2.8,0.6-4,0.6h-9.9V1065.4z M177.7,1070.2v11.7h1.6
							c1.4,0,2.4-0.2,3-0.5s1-0.8,1.4-1.6s0.5-2,0.5-3.7c0-2.3-0.4-3.8-1.1-4.7s-2-1.3-3.7-1.3H177.7z"/>
					</g>
				</g>
				<g>
					<polygon points="86.9,1132.3 108,1132.3 108,1110.3 143.4,1110.3 143.4,1132.3 164.5,1132.3 125.7,1199.6 					"/>
					<path class="st3" d="M140.1,1113.6v22h18.7l-33.1,57.3l-33.1-57.3h18.7v-22H140.1 M146.7,1106.9h-6.6h-28.7h-6.6v6.6v15.4H92.6
						H81.1l5.7,10l33.1,57.3l5.7,9.9l5.7-9.9l33.1-57.3l5.7-10h-11.5h-12.1v-15.4V1106.9L146.7,1106.9z"/>
				</g>
			</g>
			<g>
				<g>
					<rect x="56.6" y="1220.3" class="st1" width="138.2" height="77.8"/>
					<rect x="56.2" y="1303.6" class="st2" width="29.8" height="43.2"/>
					<rect x="92.6" y="1303.6" class="st2" width="29.8" height="43.2"/>
					<rect x="129" y="1303.6" class="st2" width="29.8" height="43.2"/>
					<rect x="165.3" y="1303.6" class="st2" width="29.8" height="43.2"/>
					<g>
						<path class="st3" d="M74.8,1325.5h-7.5l-1,3.5h-6.8l8.1-21.5h7.2l8.1,21.5h-6.9L74.8,1325.5z M73.5,1320.8l-2.4-7.7l-2.3,7.7
							H73.5z"/>
					</g>
					<g>
						<path class="st3" d="M98,1307.5h12.4c2.1,0,3.7,0.5,4.8,1.5s1.7,2.3,1.7,3.8c0,1.3-0.4,2.4-1.2,3.3c-0.5,0.6-1.3,1.1-2.3,1.4
							c1.5,0.4,2.7,1,3.4,1.9s1.1,2,1.1,3.4c0,1.1-0.3,2.1-0.8,3s-1.2,1.6-2.1,2.1c-0.6,0.3-1.4,0.6-2.5,0.7c-1.5,0.2-2.5,0.3-3,0.3
							H98V1307.5z M104.7,1316h2.9c1,0,1.8-0.2,2.2-0.5s0.6-0.9,0.6-1.5c0-0.6-0.2-1.1-0.6-1.5s-1.1-0.5-2.1-0.5h-2.9V1316z
							 M104.7,1324.4h3.4c1.1,0,1.9-0.2,2.4-0.6s0.7-0.9,0.7-1.6c0-0.6-0.2-1.1-0.7-1.5s-1.3-0.6-2.4-0.6h-3.4V1324.4z"/>
					</g>
					<g>
						<path class="st3" d="M148.7,1320.2l5.8,1.8c-0.4,1.6-1,3-1.8,4.1s-1.9,1.9-3.1,2.5s-2.8,0.8-4.8,0.8c-2.3,0-4.2-0.3-5.7-1
							c-1.5-0.7-2.8-1.9-3.8-3.6c-1.1-1.7-1.6-3.9-1.6-6.6c0-3.6,0.9-6.3,2.8-8.2c1.9-1.9,4.6-2.9,8-2.9c2.7,0,4.8,0.5,6.4,1.6
							s2.7,2.8,3.4,5l-5.9,1.3c-0.2-0.7-0.4-1.1-0.6-1.4c-0.4-0.5-0.8-0.9-1.4-1.2s-1.1-0.4-1.8-0.4c-1.5,0-2.7,0.6-3.5,1.8
							c-0.6,0.9-0.9,2.3-0.9,4.2c0,2.4,0.4,4,1.1,4.9c0.7,0.9,1.7,1.3,3,1.3c1.3,0,2.2-0.4,2.9-1.1S148.4,1321.6,148.7,1320.2z"/>
					</g>
					<g>
						<path class="st3" d="M170.9,1307.5h9.9c1.9,0,3.5,0.3,4.7,0.8s2.2,1.3,3,2.3s1.3,2.1,1.7,3.4s0.5,2.7,0.5,4.2
							c0,2.3-0.3,4.1-0.8,5.3s-1.2,2.3-2.2,3.2s-1.9,1.4-3,1.7c-1.5,0.4-2.8,0.6-4,0.6h-9.9V1307.5z M177.5,1312.4v11.7h1.6
							c1.4,0,2.4-0.2,3-0.5s1-0.8,1.4-1.6s0.5-2,0.5-3.7c0-2.3-0.4-3.8-1.1-4.7s-2-1.3-3.7-1.3H177.5z"/>
					</g>
				</g>
				<g>
					<polygon points="86.7,1374.5 107.8,1374.5 107.8,1352.4 143.2,1352.4 143.2,1374.5 164.3,1374.5 125.5,1441.7 					"/>
					<path class="st3" d="M139.9,1355.7v22h18.7l-33.1,57.3l-33.1-57.3h18.7v-22H139.9 M146.5,1349.1h-6.6h-28.7h-6.6v6.6v15.4H92.4
						H80.9l5.7,10l33.1,57.3l5.7,9.9l5.7-9.9l33.1-57.3l5.7-10h-11.5h-12.1v-15.4V1349.1L146.5,1349.1z"/>
				</g>
			</g>
			<rect x="56.6" y="1462.4" class="st1" width="138.2" height="77.8"/>
			<g>
				<rect x="110.8" y="1545.2" width="29.8" height="43.2"/>
				<g>
					<path class="st3" d="M111.7,1560.6h7.6v2.1h-4.7v1.6h4.4v2h-4.4v2h4.9v2.3h-7.7V1560.6z"/>
					<path class="st3" d="M121,1560.6h2.6l3.4,5.5v-5.5h2.7v10H127l-3.4-5.5v5.5H121V1560.6z"/>
					<path class="st3" d="M131.6,1560.6h4.2c0.8,0,1.5,0.1,2,0.4c0.5,0.2,0.9,0.6,1.3,1.1c0.3,0.5,0.6,1,0.7,1.6s0.2,1.3,0.2,1.9
						c0,1.1-0.1,1.9-0.3,2.5s-0.5,1.1-0.9,1.5c-0.4,0.4-0.8,0.7-1.3,0.8c-0.6,0.2-1.2,0.3-1.7,0.3h-4.2V1560.6z M134.4,1562.9v5.4
						h0.7c0.6,0,1-0.1,1.3-0.2s0.4-0.4,0.6-0.7c0.1-0.4,0.2-0.9,0.2-1.7c0-1.1-0.2-1.8-0.5-2.2c-0.3-0.4-0.8-0.6-1.6-0.6H134.4z"/>
				</g>
			</g>
		</g>
		<g>
			<g>
				<polygon points="15.6,38.5 15.6,19 7.5,19 7.5,11.7 32.7,11.7 32.7,19 24.6,19 24.6,38.5 				"/>
				<path class="st3" d="M32.2,12.2v6.4h-8.1V38h-8V18.5H8v-6.4H32.2 M33.2,11.2h-1H8H7v1v6.4v1h1h7.1V38v1h1h8h1v-1V19.5h7.1h1v-1
					v-6.4V11.2L33.2,11.2z"/>
			</g>
			<g>
				<rect x="35.6" y="11.7" width="9" height="26.8"/>
				<path class="st3" d="M44.1,12.2V38h-8V12.2H44.1 M45.1,11.2h-1h-8h-1v1V38v1h1h8h1v-1V12.2V11.2L45.1,11.2z"/>
			</g>
			<g>
				<polygon points="71.7,38.5 71.7,22.3 67.5,38.5 60.9,38.5 56.7,22.3 56.7,38.5 49.2,38.5 49.2,11.7 60.6,11.7 64.2,25.9 
					67.8,11.7 79.2,11.7 79.2,38.5 				"/>
				<path class="st3" d="M78.7,12.2V38h-6.5V18.3l-5,19.7h-5.9l-5-19.7V38h-6.5V12.2h10.5l4,15.7l4-15.7H78.7 M79.7,11.2h-1H68.2
					h-0.8l-0.2,0.8l-3,11.9l-3.1-11.9L61,11.2h-0.8H49.7h-1v1V38v1h1h6.5h1v-1V26.3l3,11.9l0.2,0.8h0.8h5.9h0.8l0.2-0.8l3.1-12V38v1
					h1h6.5h1v-1V12.2V11.2L79.7,11.2z"/>
			</g>
			<g>
				<polygon points="83.3,38.5 83.3,11.7 105.6,11.7 105.6,18.2 92.2,18.2 92.2,21.3 104.6,21.3 104.6,27.5 92.2,27.5 92.2,31.6 
					106,31.6 106,38.5 				"/>
				<path class="st3" d="M105.1,12.2v5.5H91.7v4.1h12.4V27H91.7v5.1h13.7V38H83.8V12.2H105.1 M106.1,11.2h-1H83.8h-1v1V38v1h1h21.7
					h1v-1v-5.8v-1h-1H92.7V28h11.4h1v-1v-5.3v-1h-1H92.7v-2.1h12.4h1v-1v-5.5V11.2L106.1,11.2z"/>
			</g>
			<g>
				<polygon points="109.3,38.5 109.3,11.7 118.2,11.7 118.2,31.1 130.7,31.1 130.7,38.5 				"/>
				<path class="st3" d="M117.7,12.2v19.4h12.4V38h-20.4V12.2H117.7 M118.7,11.2h-1h-8h-1v1V38v1h1h20.4h1v-1v-6.3v-1h-1h-11.4V12.2
					V11.2L118.7,11.2z"/>
			</g>
			<g>
				<rect x="133.6" y="11.7" width="9" height="26.8"/>
				<path class="st3" d="M142.1,12.2V38h-8V12.2H142.1 M143.1,11.2h-1h-8h-1v1V38v1h1h8h1v-1V12.2V11.2L143.1,11.2z"/>
			</g>
			<g>
				<polygon points="164.7,38.5 155.8,25.4 155.8,38.5 147.4,38.5 147.4,11.7 155.6,11.7 164.5,24.8 164.5,11.7 173,11.7 173,38.5 
									"/>
				<path class="st3" d="M172.5,12.2V38H165l-9.7-14.1V38h-7.5V12.2h7.4l9.7,14.3V12.2H172.5 M173.5,11.2h-1H165h-1v1v11l-7.9-11.6
					l-0.3-0.4h-0.5h-7.4h-1v1V38v1h1h7.5h1v-1V27l7.8,11.5l0.3,0.4h0.5h7.5h1v-1V12.2V11.2L173.5,11.2z"/>
			</g>
			<g>
				<polygon points="177.3,38.5 177.3,11.7 199.6,11.7 199.6,18.2 186.3,18.2 186.3,21.3 198.6,21.3 198.6,27.5 186.3,27.5 
					186.3,31.6 200,31.6 200,38.5 				"/>
				<path class="st3" d="M199.1,12.2v5.5h-13.4v4.1h12.4V27h-12.4v5.1h13.7V38h-21.7V12.2H199.1 M200.1,11.2h-1h-21.3h-1v1V38v1h1
					h21.7h1v-1v-5.8v-1h-1h-12.7V28h11.4h1v-1v-5.3v-1h-1h-11.4v-2.1h12.4h1v-1v-5.5V11.2L200.1,11.2z"/>
			</g>
			<g>
				<path d="M232.6,38.5l-1.3-4.3H223l-1.3,4.3h-9.2l10.1-26.8h9.4L242,38.5H232.6z M229.3,27.6l-2.2-7.1l-2.1,7.1H229.3z"/>
				<path class="st3" d="M231.6,12.2l9.7,25.8h-8.3l-1.3-4.3h-9l-1.3,4.3h-8.1l9.7-25.8H231.6 M224.3,28.1h5.7l-2.8-9.3L224.3,28.1
					 M232.3,11.2h-0.7h-8.7h-0.7l-0.2,0.6l-9.7,25.8l-0.5,1.4h1.4h8.1h0.7l0.2-0.7l1-3.5h7.6l1.1,3.5l0.2,0.7h0.7h8.3h1.4l-0.5-1.4
					l-9.7-25.8L232.3,11.2L232.3,11.2z M225.7,27.1l1.5-4.8l1.5,4.8H225.7L225.7,27.1z"/>
			</g>
		</g>
	</g>
</g>
<g>
	<g id="TIME_B">
		<g>
			<g>
				<g>
					<rect x="328.8" y="251.6" class="st1" width="138.2" height="77.8"/>
					<rect x="328.4" y="335" class="st2" width="29.8" height="43.2"/>
					<rect x="364.8" y="335" class="st2" width="29.8" height="43.2"/>
					<rect x="401.2" y="335" class="st2" width="29.8" height="43.2"/>
					<rect x="437.5" y="335" class="st2" width="29.8" height="43.2"/>
					<g>
						<path class="st3" d="M347.1,356.8h-7.5l-1,3.5h-6.8l8.1-21.5h7.2l8.1,21.5h-6.9L347.1,356.8z M345.7,352.2l-2.4-7.7l-2.3,7.7
							H345.7z"/>
					</g>
					<g>
						<path class="st3" d="M370.2,338.9h12.4c2.1,0,3.7,0.5,4.8,1.5s1.7,2.3,1.7,3.8c0,1.3-0.4,2.4-1.2,3.3
							c-0.5,0.6-1.3,1.1-2.3,1.4c1.5,0.4,2.7,1,3.4,1.9s1.1,2,1.1,3.4c0,1.1-0.3,2.1-0.8,3s-1.2,1.6-2.1,2.1
							c-0.6,0.3-1.4,0.6-2.5,0.7c-1.5,0.2-2.5,0.3-3,0.3h-11.5V338.9z M376.9,347.3h2.9c1,0,1.8-0.2,2.2-0.5s0.6-0.9,0.6-1.5
							c0-0.6-0.2-1.1-0.6-1.5s-1.1-0.5-2.1-0.5h-2.9V347.3z M376.9,355.8h3.4c1.1,0,1.9-0.2,2.4-0.6s0.7-0.9,0.7-1.6
							c0-0.6-0.2-1.1-0.7-1.5s-1.3-0.6-2.4-0.6h-3.4V355.8z"/>
					</g>
					<g>
						<path class="st3" d="M420.9,351.6l5.8,1.8c-0.4,1.6-1,3-1.8,4.1s-1.9,1.9-3.1,2.5s-2.8,0.8-4.8,0.8c-2.3,0-4.2-0.3-5.7-1
							c-1.5-0.7-2.8-1.9-3.8-3.6c-1.1-1.7-1.6-3.9-1.6-6.6c0-3.6,0.9-6.3,2.8-8.2c1.9-1.9,4.6-2.9,8-2.9c2.7,0,4.8,0.5,6.4,1.6
							s2.7,2.8,3.4,5l-5.9,1.3c-0.2-0.7-0.4-1.1-0.6-1.4c-0.4-0.5-0.8-0.9-1.4-1.2s-1.1-0.4-1.8-0.4c-1.5,0-2.7,0.6-3.5,1.8
							c-0.6,0.9-0.9,2.3-0.9,4.2c0,2.4,0.4,4,1.1,4.9c0.7,0.9,1.7,1.3,3,1.3c1.3,0,2.2-0.4,2.9-1.1S420.6,353,420.9,351.6z"/>
					</g>
					<g>
						<path class="st3" d="M443.1,338.9h9.9c1.9,0,3.5,0.3,4.7,0.8s2.2,1.3,3,2.3s1.3,2.1,1.7,3.4s0.5,2.7,0.5,4.2
							c0,2.3-0.3,4.1-0.8,5.3s-1.2,2.3-2.2,3.2s-1.9,1.4-3,1.7c-1.5,0.4-2.8,0.6-4,0.6h-9.9V338.9z M449.7,343.8v11.7h1.6
							c1.4,0,2.4-0.2,3-0.5s1-0.8,1.4-1.6s0.5-2,0.5-3.7c0-2.3-0.4-3.8-1.1-4.7s-2-1.3-3.7-1.3H449.7z"/>
					</g>
				</g>
				<g>
					<polygon points="358.9,405.8 380,405.8 380,383.8 415.4,383.8 415.4,405.8 436.5,405.8 397.7,473.1 					"/>
					<path class="st3" d="M412.1,387.1v22h18.7l-33.1,57.3l-33.1-57.3h18.7v-22H412.1 M418.7,380.5h-6.6h-28.7h-6.6v6.6v15.4h-12.1
						h-11.5l5.7,10l33.1,57.3l5.7,9.9l5.7-9.9l33.1-57.3l5.7-10h-11.5h-12.1v-15.4V380.5L418.7,380.5z"/>
				</g>
			</g>
			<rect x="328.4" y="86.3" class="st2" width="29.8" height="43.2"/>
			<rect x="364.8" y="86.3" class="st2" width="29.8" height="43.2"/>
			<rect x="401.2" y="86.3" class="st2" width="29.8" height="43.2"/>
			<rect x="437.5" y="86.3" class="st2" width="29.8" height="43.2"/>
			<g>
				<path class="st3" d="M347.1,108.2h-7.5l-1,3.5h-6.8l8.1-21.5h7.2l8.1,21.5h-6.9L347.1,108.2z M345.7,103.5l-2.4-7.7l-2.3,7.7
					H345.7z"/>
			</g>
			<g>
				<path class="st3" d="M370.2,90.2h12.4c2.1,0,3.7,0.5,4.8,1.5s1.7,2.3,1.7,3.8c0,1.3-0.4,2.4-1.2,3.3c-0.5,0.6-1.3,1.1-2.3,1.4
					c1.5,0.4,2.7,1,3.4,1.9s1.1,2,1.1,3.4c0,1.1-0.3,2.1-0.8,3s-1.2,1.6-2.1,2.1c-0.6,0.3-1.4,0.6-2.5,0.7c-1.5,0.2-2.5,0.3-3,0.3
					h-11.5V90.2z M376.9,98.7h2.9c1,0,1.8-0.2,2.2-0.5s0.6-0.9,0.6-1.5c0-0.6-0.2-1.1-0.6-1.5s-1.1-0.5-2.1-0.5h-2.9V98.7z
					 M376.9,107.1h3.4c1.1,0,1.9-0.2,2.4-0.6s0.7-0.9,0.7-1.6c0-0.6-0.2-1.1-0.7-1.5s-1.3-0.6-2.4-0.6h-3.4V107.1z"/>
			</g>
			<g>
				<path class="st3" d="M420.9,102.9l5.8,1.8c-0.4,1.6-1,3-1.8,4.1s-1.9,1.9-3.1,2.5s-2.8,0.8-4.8,0.8c-2.3,0-4.2-0.3-5.7-1
					c-1.5-0.7-2.8-1.9-3.8-3.6c-1.1-1.7-1.6-3.9-1.6-6.6c0-3.6,0.9-6.3,2.8-8.2c1.9-1.9,4.6-2.9,8-2.9c2.7,0,4.8,0.5,6.4,1.6
					s2.7,2.8,3.4,5l-5.9,1.3c-0.2-0.7-0.4-1.1-0.6-1.4c-0.4-0.5-0.8-0.9-1.4-1.2s-1.1-0.4-1.8-0.4c-1.5,0-2.7,0.6-3.5,1.8
					c-0.6,0.9-0.9,2.3-0.9,4.2c0,2.4,0.4,4,1.1,4.9c0.7,0.9,1.7,1.3,3,1.3c1.3,0,2.2-0.4,2.9-1.1S420.6,104.3,420.9,102.9z"/>
			</g>
			<g>
				<path class="st3" d="M443.1,90.2h9.9c1.9,0,3.5,0.3,4.7,0.8s2.2,1.3,3,2.3s1.3,2.1,1.7,3.4s0.5,2.7,0.5,4.2
					c0,2.3-0.3,4.1-0.8,5.3s-1.2,2.3-2.2,3.2s-1.9,1.4-3,1.7c-1.5,0.4-2.8,0.6-4,0.6h-9.9V90.2z M449.7,95.1v11.7h1.6
					c1.4,0,2.4-0.2,3-0.5s1-0.8,1.4-1.6s0.5-2,0.5-3.7c0-2.3-0.4-3.8-1.1-4.7s-2-1.3-3.7-1.3H449.7z"/>
			</g>
			<g>
				<polygon points="358.9,157.2 380,157.2 380,135.1 415.4,135.1 415.4,157.2 436.5,157.2 397.7,224.4 				"/>
				<path class="st3" d="M412.1,138.5v22h18.7l-33.1,57.3l-33.1-57.3h18.7v-22H412.1 M418.7,131.8h-6.6h-28.7h-6.6v6.6v15.4h-12.1
					h-11.5l5.7,10l33.1,57.3l5.7,9.9l5.7-9.9l33.1-57.3l5.7-10h-11.5h-12.1v-15.4V131.8L418.7,131.8z"/>
			</g>
			<g>
				<g>
					<rect x="328.8" y="493.8" class="st1" width="138.2" height="77.8"/>
					<rect x="328.4" y="577.1" class="st2" width="29.8" height="43.2"/>
					<rect x="364.8" y="577.1" class="st2" width="29.8" height="43.2"/>
					<rect x="401.2" y="577.1" class="st2" width="29.8" height="43.2"/>
					<rect x="437.5" y="577.1" class="st2" width="29.8" height="43.2"/>
					<g>
						<path class="st3" d="M347.1,599h-7.5l-1,3.5h-6.8l8.1-21.5h7.2l8.1,21.5h-6.9L347.1,599z M345.7,594.4l-2.4-7.7l-2.3,7.7
							H345.7z"/>
					</g>
					<g>
						<path class="st3" d="M370.2,581.1h12.4c2.1,0,3.7,0.5,4.8,1.5s1.7,2.3,1.7,3.8c0,1.3-0.4,2.4-1.2,3.3
							c-0.5,0.6-1.3,1.1-2.3,1.4c1.5,0.4,2.7,1,3.4,1.9s1.1,2,1.1,3.4c0,1.1-0.3,2.1-0.8,3s-1.2,1.6-2.1,2.1
							c-0.6,0.3-1.4,0.6-2.5,0.7c-1.5,0.2-2.5,0.3-3,0.3h-11.5V581.1z M376.9,589.5h2.9c1,0,1.8-0.2,2.2-0.5s0.6-0.9,0.6-1.5
							c0-0.6-0.2-1.1-0.6-1.5s-1.1-0.5-2.1-0.5h-2.9V589.5z M376.9,597.9h3.4c1.1,0,1.9-0.2,2.4-0.6s0.7-0.9,0.7-1.6
							c0-0.6-0.2-1.1-0.7-1.5s-1.3-0.6-2.4-0.6h-3.4V597.9z"/>
					</g>
					<g>
						<path class="st3" d="M420.9,593.8l5.8,1.8c-0.4,1.6-1,3-1.8,4.1s-1.9,1.9-3.1,2.5s-2.8,0.8-4.8,0.8c-2.3,0-4.2-0.3-5.7-1
							c-1.5-0.7-2.8-1.9-3.8-3.6c-1.1-1.7-1.6-3.9-1.6-6.6c0-3.6,0.9-6.3,2.8-8.2c1.9-1.9,4.6-2.9,8-2.9c2.7,0,4.8,0.5,6.4,1.6
							s2.7,2.8,3.4,5l-5.9,1.3c-0.2-0.7-0.4-1.1-0.6-1.4c-0.4-0.5-0.8-0.9-1.4-1.2s-1.1-0.4-1.8-0.4c-1.5,0-2.7,0.6-3.5,1.8
							c-0.6,0.9-0.9,2.3-0.9,4.2c0,2.4,0.4,4,1.1,4.9c0.7,0.9,1.7,1.3,3,1.3c1.3,0,2.2-0.4,2.9-1.1S420.6,595.1,420.9,593.8z"/>
					</g>
					<g>
						<path class="st3" d="M443.1,581.1h9.9c1.9,0,3.5,0.3,4.7,0.8s2.2,1.3,3,2.3s1.3,2.1,1.7,3.4s0.5,2.7,0.5,4.2
							c0,2.3-0.3,4.1-0.8,5.3s-1.2,2.3-2.2,3.2s-1.9,1.4-3,1.7c-1.5,0.4-2.8,0.6-4,0.6h-9.9V581.1z M449.7,585.9v11.7h1.6
							c1.4,0,2.4-0.2,3-0.5s1-0.8,1.4-1.6s0.5-2,0.5-3.7c0-2.3-0.4-3.8-1.1-4.7s-2-1.3-3.7-1.3H449.7z"/>
					</g>
				</g>
				<g>
					<polygon points="358.9,648 380,648 380,626 415.4,626 415.4,648 436.5,648 397.7,715.2 					"/>
					<path class="st3" d="M412.1,629.3v22h18.7l-33.1,57.3l-33.1-57.3h18.7v-22H412.1 M418.7,622.6h-6.6h-28.7h-6.6v6.6v15.4h-12.1
						h-11.5l5.7,10l33.1,57.3l5.7,9.9l5.7-9.9l33.1-57.3l5.7-10h-11.5h-12.1v-15.4V622.6L418.7,622.6z"/>
				</g>
			</g>
			<g>
				<g>
					<rect x="328.8" y="735.9" class="st1" width="138.2" height="77.8"/>
					<rect x="328.4" y="819.3" class="st2" width="29.8" height="43.2"/>
					<rect x="364.8" y="819.3" class="st2" width="29.8" height="43.2"/>
					<rect x="401.2" y="819.3" class="st2" width="29.8" height="43.2"/>
					<rect x="437.5" y="819.3" class="st2" width="29.8" height="43.2"/>
					<g>
						<path class="st3" d="M347.1,841.1h-7.5l-1,3.5h-6.8l8.1-21.5h7.2l8.1,21.5h-6.9L347.1,841.1z M345.7,836.5l-2.4-7.7l-2.3,7.7
							H345.7z"/>
					</g>
					<g>
						<path class="st3" d="M370.2,823.2h12.4c2.1,0,3.7,0.5,4.8,1.5s1.7,2.3,1.7,3.8c0,1.3-0.4,2.4-1.2,3.3
							c-0.5,0.6-1.3,1.1-2.3,1.4c1.5,0.4,2.7,1,3.4,1.9s1.1,2,1.1,3.4c0,1.1-0.3,2.1-0.8,3s-1.2,1.6-2.1,2.1
							c-0.6,0.3-1.4,0.6-2.5,0.7c-1.5,0.2-2.5,0.3-3,0.3h-11.5V823.2z M376.9,831.6h2.9c1,0,1.8-0.2,2.2-0.5s0.6-0.9,0.6-1.5
							c0-0.6-0.2-1.1-0.6-1.5s-1.1-0.5-2.1-0.5h-2.9V831.6z M376.9,840.1h3.4c1.1,0,1.9-0.2,2.4-0.6s0.7-0.9,0.7-1.6
							c0-0.6-0.2-1.1-0.7-1.5s-1.3-0.6-2.4-0.6h-3.4V840.1z"/>
					</g>
					<g>
						<path class="st3" d="M420.9,835.9l5.8,1.8c-0.4,1.6-1,3-1.8,4.1s-1.9,1.9-3.1,2.5s-2.8,0.8-4.8,0.8c-2.3,0-4.2-0.3-5.7-1
							c-1.5-0.7-2.8-1.9-3.8-3.6c-1.1-1.7-1.6-3.9-1.6-6.6c0-3.6,0.9-6.3,2.8-8.2c1.9-1.9,4.6-2.9,8-2.9c2.7,0,4.8,0.5,6.4,1.6
							s2.7,2.8,3.4,5l-5.9,1.3c-0.2-0.7-0.4-1.1-0.6-1.4c-0.4-0.5-0.8-0.9-1.4-1.2s-1.1-0.4-1.8-0.4c-1.5,0-2.7,0.6-3.5,1.8
							c-0.6,0.9-0.9,2.3-0.9,4.2c0,2.4,0.4,4,1.1,4.9c0.7,0.9,1.7,1.3,3,1.3c1.3,0,2.2-0.4,2.9-1.1S420.6,837.3,420.9,835.9z"/>
					</g>
					<g>
						<path class="st3" d="M443.1,823.2h9.9c1.9,0,3.5,0.3,4.7,0.8s2.2,1.3,3,2.3s1.3,2.1,1.7,3.4s0.5,2.7,0.5,4.2
							c0,2.3-0.3,4.1-0.8,5.3s-1.2,2.3-2.2,3.2s-1.9,1.4-3,1.7c-1.5,0.4-2.8,0.6-4,0.6h-9.9V823.2z M449.7,828.1v11.7h1.6
							c1.4,0,2.4-0.2,3-0.5s1-0.8,1.4-1.6s0.5-2,0.5-3.7c0-2.3-0.4-3.8-1.1-4.7s-2-1.3-3.7-1.3H449.7z"/>
					</g>
				</g>
				<g>
					<polygon points="358.9,890.2 380,890.2 380,868.1 415.4,868.1 415.4,890.2 436.5,890.2 397.7,957.4 					"/>
					<path class="st3" d="M412.1,871.4v22h18.7l-33.1,57.3l-33.1-57.3h18.7v-22H412.1 M418.7,864.8h-6.6h-28.7h-6.6v6.6v15.4h-12.1
						h-11.5l5.7,10l33.1,57.3l5.7,9.9l5.7-9.9l33.1-57.3l5.7-10h-11.5h-12.1v-15.4V864.8L418.7,864.8z"/>
				</g>
			</g>
			<g>
				<g>
					<rect x="328.8" y="978.1" class="st1" width="138.2" height="77.8"/>
					<rect x="328.4" y="1061.4" class="st2" width="29.8" height="43.2"/>
					<rect x="364.8" y="1061.4" class="st2" width="29.8" height="43.2"/>
					<rect x="401.2" y="1061.4" class="st2" width="29.8" height="43.2"/>
					<rect x="437.5" y="1061.4" class="st2" width="29.8" height="43.2"/>
					<g>
						<path class="st3" d="M347.1,1083.3h-7.5l-1,3.5h-6.8l8.1-21.5h7.2l8.1,21.5h-6.9L347.1,1083.3z M345.7,1078.7l-2.4-7.7
							l-2.3,7.7H345.7z"/>
					</g>
					<g>
						<path class="st3" d="M370.2,1065.4h12.4c2.1,0,3.7,0.5,4.8,1.5s1.7,2.3,1.7,3.8c0,1.3-0.4,2.4-1.2,3.3
							c-0.5,0.6-1.3,1.1-2.3,1.4c1.5,0.4,2.7,1,3.4,1.9s1.1,2,1.1,3.4c0,1.1-0.3,2.1-0.8,3s-1.2,1.6-2.1,2.1
							c-0.6,0.3-1.4,0.6-2.5,0.7c-1.5,0.2-2.5,0.3-3,0.3h-11.5V1065.4z M376.9,1073.8h2.9c1,0,1.8-0.2,2.2-0.5s0.6-0.9,0.6-1.5
							c0-0.6-0.2-1.1-0.6-1.5s-1.1-0.5-2.1-0.5h-2.9V1073.8z M376.9,1082.2h3.4c1.1,0,1.9-0.2,2.4-0.6s0.7-0.9,0.7-1.6
							c0-0.6-0.2-1.1-0.7-1.5s-1.3-0.6-2.4-0.6h-3.4V1082.2z"/>
					</g>
					<g>
						<path class="st3" d="M420.9,1078.1l5.8,1.8c-0.4,1.6-1,3-1.8,4.1s-1.9,1.9-3.1,2.5s-2.8,0.8-4.8,0.8c-2.3,0-4.2-0.3-5.7-1
							c-1.5-0.7-2.8-1.9-3.8-3.6c-1.1-1.7-1.6-3.9-1.6-6.6c0-3.6,0.9-6.3,2.8-8.2c1.9-1.9,4.6-2.9,8-2.9c2.7,0,4.8,0.5,6.4,1.6
							s2.7,2.8,3.4,5l-5.9,1.3c-0.2-0.7-0.4-1.1-0.6-1.4c-0.4-0.5-0.8-0.9-1.4-1.2s-1.1-0.4-1.8-0.4c-1.5,0-2.7,0.6-3.5,1.8
							c-0.6,0.9-0.9,2.3-0.9,4.2c0,2.4,0.4,4,1.1,4.9c0.7,0.9,1.7,1.3,3,1.3c1.3,0,2.2-0.4,2.9-1.1S420.6,1079.4,420.9,1078.1z"/>
					</g>
					<g>
						<path class="st3" d="M443.1,1065.4h9.9c1.9,0,3.5,0.3,4.7,0.8s2.2,1.3,3,2.3s1.3,2.1,1.7,3.4s0.5,2.7,0.5,4.2
							c0,2.3-0.3,4.1-0.8,5.3s-1.2,2.3-2.2,3.2s-1.9,1.4-3,1.7c-1.5,0.4-2.8,0.6-4,0.6h-9.9V1065.4z M449.7,1070.2v11.7h1.6
							c1.4,0,2.4-0.2,3-0.5s1-0.8,1.4-1.6s0.5-2,0.5-3.7c0-2.3-0.4-3.8-1.1-4.7s-2-1.3-3.7-1.3H449.7z"/>
					</g>
				</g>
				<g>
					<polygon points="358.9,1132.3 380,1132.3 380,1110.3 415.4,1110.3 415.4,1132.3 436.5,1132.3 397.7,1199.6 					"/>
					<path class="st3" d="M412.1,1113.6v22h18.7l-33.1,57.3l-33.1-57.3h18.7v-22H412.1 M418.7,1106.9h-6.6h-28.7h-6.6v6.6v15.4
						h-12.1h-11.5l5.7,10l33.1,57.3l5.7,9.9l5.7-9.9l33.1-57.3l5.7-10h-11.5h-12.1v-15.4V1106.9L418.7,1106.9z"/>
				</g>
			</g>
			<g>
				<g>
					<rect x="328.6" y="1220.3" class="st1" width="138.2" height="77.8"/>
					<rect x="328.2" y="1303.6" class="st2" width="29.8" height="43.2"/>
					<rect x="364.6" y="1303.6" class="st2" width="29.8" height="43.2"/>
					<rect x="401" y="1303.6" class="st2" width="29.8" height="43.2"/>
					<rect x="437.3" y="1303.6" class="st2" width="29.8" height="43.2"/>
					<g>
						<path class="st3" d="M346.8,1325.5h-7.5l-1,3.5h-6.8l8.1-21.5h7.2l8.1,21.5h-6.9L346.8,1325.5z M345.5,1320.8l-2.4-7.7
							l-2.3,7.7H345.5z"/>
					</g>
					<g>
						<path class="st3" d="M370,1307.5h12.4c2.1,0,3.7,0.5,4.8,1.5s1.7,2.3,1.7,3.8c0,1.3-0.4,2.4-1.2,3.3c-0.5,0.6-1.3,1.1-2.3,1.4
							c1.5,0.4,2.7,1,3.4,1.9s1.1,2,1.1,3.4c0,1.1-0.3,2.1-0.8,3s-1.2,1.6-2.1,2.1c-0.6,0.3-1.4,0.6-2.5,0.7c-1.5,0.2-2.5,0.3-3,0.3
							H370V1307.5z M376.7,1316h2.9c1,0,1.8-0.2,2.2-0.5s0.6-0.9,0.6-1.5c0-0.6-0.2-1.1-0.6-1.5s-1.1-0.5-2.1-0.5h-2.9V1316z
							 M376.7,1324.4h3.4c1.1,0,1.9-0.2,2.4-0.6s0.7-0.9,0.7-1.6c0-0.6-0.2-1.1-0.7-1.5s-1.3-0.6-2.4-0.6h-3.4V1324.4z"/>
					</g>
					<g>
						<path class="st3" d="M420.7,1320.2l5.8,1.8c-0.4,1.6-1,3-1.8,4.1s-1.9,1.9-3.1,2.5s-2.8,0.8-4.8,0.8c-2.3,0-4.2-0.3-5.7-1
							c-1.5-0.7-2.8-1.9-3.8-3.6c-1.1-1.7-1.6-3.9-1.6-6.6c0-3.6,0.9-6.3,2.8-8.2c1.9-1.9,4.6-2.9,8-2.9c2.7,0,4.8,0.5,6.4,1.6
							s2.7,2.8,3.4,5l-5.9,1.3c-0.2-0.7-0.4-1.1-0.6-1.4c-0.4-0.5-0.8-0.9-1.4-1.2s-1.1-0.4-1.8-0.4c-1.5,0-2.7,0.6-3.5,1.8
							c-0.6,0.9-0.9,2.3-0.9,4.2c0,2.4,0.4,4,1.1,4.9c0.7,0.9,1.7,1.3,3,1.3c1.3,0,2.2-0.4,2.9-1.1S420.4,1321.6,420.7,1320.2z"/>
					</g>
					<g>
						<path class="st3" d="M442.9,1307.5h9.9c1.9,0,3.5,0.3,4.7,0.8s2.2,1.3,3,2.3s1.3,2.1,1.7,3.4s0.5,2.7,0.5,4.2
							c0,2.3-0.3,4.1-0.8,5.3s-1.2,2.3-2.2,3.2s-1.9,1.4-3,1.7c-1.5,0.4-2.8,0.6-4,0.6h-9.9V1307.5z M449.5,1312.4v11.7h1.6
							c1.4,0,2.4-0.2,3-0.5s1-0.8,1.4-1.6s0.5-2,0.5-3.7c0-2.3-0.4-3.8-1.1-4.7s-2-1.3-3.7-1.3H449.5z"/>
					</g>
				</g>
				<g>
					<polygon points="358.7,1374.5 379.8,1374.5 379.8,1352.4 415.2,1352.4 415.2,1374.5 436.3,1374.5 397.5,1441.7 					"/>
					<path class="st3" d="M411.9,1355.7v22h18.7l-33.1,57.3l-33.1-57.3h18.7v-22H411.9 M418.5,1349.1h-6.6h-28.7h-6.6v6.6v15.4
						h-12.1h-11.5l5.7,10l33.1,57.3l5.7,9.9l5.7-9.9l33.1-57.3l5.7-10h-11.5h-12.1v-15.4V1349.1L418.5,1349.1z"/>
				</g>
			</g>
			<rect x="328.6" y="1462.4" class="st1" width="138.2" height="77.8"/>
			<g>
				<rect x="382.8" y="1545.2" class="st2" width="29.8" height="43.2"/>
				<g>
					<path class="st3" d="M383.7,1560.6h7.6v2.1h-4.7v1.6h4.4v2h-4.4v2h4.9v2.3h-7.7V1560.6z"/>
					<path class="st3" d="M393,1560.6h2.6l3.4,5.5v-5.5h2.7v10H399l-3.4-5.5v5.5H393V1560.6z"/>
					<path class="st3" d="M403.6,1560.6h4.2c0.8,0,1.5,0.1,2,0.4c0.5,0.2,0.9,0.6,1.3,1.1c0.3,0.5,0.6,1,0.7,1.6s0.2,1.3,0.2,1.9
						c0,1.1-0.1,1.9-0.3,2.5s-0.5,1.1-0.9,1.5c-0.4,0.4-0.8,0.7-1.3,0.8c-0.6,0.2-1.2,0.3-1.7,0.3h-4.2V1560.6z M406.4,1562.9v5.4
						h0.7c0.6,0,1-0.1,1.3-0.2s0.4-0.4,0.6-0.7c0.1-0.4,0.2-0.9,0.2-1.7c0-1.1-0.2-1.8-0.5-2.2c-0.3-0.4-0.8-0.6-1.6-0.6H406.4z"/>
				</g>
			</g>
		</g>
		<g>
			<g>
				<polygon points="287.6,38.5 287.6,19 279.5,19 279.5,11.7 304.7,11.7 304.7,19 296.6,19 296.6,38.5 				"/>
				<path class="st3" d="M304.2,12.2v6.4h-8.1V38h-8V18.5H280v-6.4H304.2 M305.2,11.2h-1H280h-1v1v6.4v1h1h7.1V38v1h1h8h1v-1V19.5
					h7.1h1v-1v-6.4V11.2L305.2,11.2z"/>
			</g>
			<g>
				<rect x="307.6" y="11.7" width="9" height="26.8"/>
				<path class="st3" d="M316.1,12.2V38h-8V12.2H316.1 M317.1,11.2h-1h-8h-1v1V38v1h1h8h1v-1V12.2V11.2L317.1,11.2z"/>
			</g>
			<g>
				<polygon points="343.7,38.5 343.7,22.3 339.5,38.5 332.9,38.5 328.7,22.3 328.7,38.5 321.2,38.5 321.2,11.7 332.6,11.7 
					336.2,25.9 339.8,11.7 351.2,11.7 351.2,38.5 				"/>
				<path class="st3" d="M350.7,12.2V38h-6.5V18.3l-5,19.7h-5.9l-5-19.7V38h-6.5V12.2h10.5l4,15.7l4-15.7H350.7 M351.7,11.2h-1
					h-10.5h-0.8l-0.2,0.8l-3,11.9l-3.1-11.9l-0.2-0.8h-0.8h-10.5h-1v1V38v1h1h6.5h1v-1V26.3l3,11.9l0.2,0.8h0.8h5.9h0.8l0.2-0.8
					l3.1-12V38v1h1h6.5h1v-1V12.2V11.2L351.7,11.2z"/>
			</g>
			<g>
				<polygon points="355.3,38.5 355.3,11.7 377.6,11.7 377.6,18.2 364.2,18.2 364.2,21.3 376.6,21.3 376.6,27.5 364.2,27.5 
					364.2,31.6 378,31.6 378,38.5 				"/>
				<path class="st3" d="M377.1,12.2v5.5h-13.4v4.1h12.4V27h-12.4v5.1h13.7V38h-21.7V12.2H377.1 M378.1,11.2h-1h-21.3h-1v1V38v1h1
					h21.7h1v-1v-5.8v-1h-1h-12.7V28h11.4h1v-1v-5.3v-1h-1h-11.4v-2.1h12.4h1v-1v-5.5V11.2L378.1,11.2z"/>
			</g>
			<g>
				<polygon points="381.3,38.5 381.3,11.7 390.2,11.7 390.2,31.1 402.7,31.1 402.7,38.5 				"/>
				<path class="st3" d="M389.7,12.2v19.4h12.4V38h-20.4V12.2H389.7 M390.7,11.2h-1h-8h-1v1V38v1h1h20.4h1v-1v-6.3v-1h-1h-11.4V12.2
					V11.2L390.7,11.2z"/>
			</g>
			<g>
				<rect x="405.6" y="11.7" width="9" height="26.8"/>
				<path class="st3" d="M414.1,12.2V38h-8V12.2H414.1 M415.1,11.2h-1h-8h-1v1V38v1h1h8h1v-1V12.2V11.2L415.1,11.2z"/>
			</g>
			<g>
				<polygon points="436.7,38.5 427.8,25.4 427.8,38.5 419.4,38.5 419.4,11.7 427.6,11.7 436.5,24.8 436.5,11.7 445,11.7 445,38.5 
									"/>
				<path class="st3" d="M444.5,12.2V38H437l-9.7-14.1V38h-7.5V12.2h7.4l9.7,14.3V12.2H444.5 M445.5,11.2h-1H437h-1v1v11l-7.9-11.6
					l-0.3-0.4h-0.5h-7.4h-1v1V38v1h1h7.5h1v-1V27l7.8,11.5l0.3,0.4h0.5h7.5h1v-1V12.2V11.2L445.5,11.2z"/>
			</g>
			<g>
				<polygon points="449.3,38.5 449.3,11.7 471.6,11.7 471.6,18.2 458.3,18.2 458.3,21.3 470.6,21.3 470.6,27.5 458.3,27.5 
					458.3,31.6 472,31.6 472,38.5 				"/>
				<path class="st3" d="M471.1,12.2v5.5h-13.4v4.1h12.4V27h-12.4v5.1h13.7V38h-21.7V12.2H471.1 M472.1,11.2h-1h-21.3h-1v1V38v1h1
					h21.7h1v-1v-5.8v-1h-1h-12.7V28h11.4h1v-1v-5.3v-1h-1h-11.4v-2.1h12.4h1v-1v-5.5V11.2L472.1,11.2z"/>
			</g>
			<g>
				<path d="M487.3,38.5V11.7h15.4c2.6,0,4.6,0.7,6.1,2c1.4,1.3,2.2,3,2.2,4.9c0,1.6-0.5,3.1-1.5,4.2c-0.4,0.5-1,0.9-1.7,1.3
					c1.3,0.5,2.3,1.2,3,2.1c0.9,1.2,1.4,2.7,1.4,4.4c0,1.4-0.3,2.7-1,3.9c-0.7,1.1-1.6,2.1-2.7,2.7c-0.7,0.4-1.8,0.7-3.2,0.9
					c-1.8,0.2-3,0.4-3.6,0.4H487.3z M499.9,31.9c1.2,0,2.1-0.2,2.6-0.6c0.5-0.4,0.7-0.9,0.7-1.6c0-0.6-0.2-1.1-0.7-1.5
					c-0.3-0.3-1-0.6-2.6-0.6h-3.5v4.2H499.9z M499.3,21.8c1.4,0,2-0.3,2.3-0.5c0.4-0.3,0.6-0.8,0.6-1.5c0-0.6-0.2-1.1-0.6-1.4
					c-0.3-0.2-0.9-0.5-2.2-0.5h-3v3.9H499.3z"/>
				<path class="st3" d="M502.7,12.2c2.5,0,4.4,0.6,5.7,1.8s2,2.8,2,4.6c0,1.5-0.5,2.8-1.4,3.9c-0.6,0.7-1.6,1.3-2.8,1.7
					c1.9,0.4,3.2,1.2,4.1,2.3s1.3,2.4,1.3,4.1c0,1.3-0.3,2.5-0.9,3.6s-1.5,1.9-2.5,2.5c-0.7,0.4-1.7,0.7-3,0.8
					c-1.8,0.2-3,0.4-3.6,0.4h-13.7V12.2H502.7 M495.8,22.3h3.5c1.2,0,2.1-0.2,2.6-0.6c0.5-0.4,0.7-1,0.7-1.9c0-0.8-0.2-1.3-0.7-1.8
					c-0.5-0.4-1.3-0.6-2.5-0.6h-3.5V22.3 M495.8,32.4h4.1c1.4,0,2.3-0.2,2.9-0.7c0.6-0.5,0.8-1.1,0.8-2c0-0.8-0.3-1.4-0.8-1.8
					s-1.5-0.7-2.9-0.7h-4V32.4 M502.7,11.2h-14.9h-1v1V38v1h1h13.7c0.6,0,1.8-0.1,3.7-0.4c1.5-0.2,2.6-0.5,3.4-1
					c1.2-0.7,2.2-1.7,2.9-2.9c0.7-1.2,1.1-2.6,1.1-4.1c0-1.9-0.5-3.5-1.5-4.7c-0.6-0.7-1.4-1.3-2.3-1.8c0.4-0.3,0.7-0.6,1-0.9
					c1.1-1.3,1.7-2.8,1.7-4.6c0-2.1-0.8-3.9-2.3-5.3C507.6,11.9,505.5,11.2,502.7,11.2L502.7,11.2z M496.8,18.4h2.5
					c1.3,0,1.8,0.3,1.9,0.4c0.2,0.1,0.4,0.4,0.4,1c0,0.7-0.2,1-0.4,1.1c-0.1,0.1-0.6,0.4-1.9,0.4h-2.5V18.4L496.8,18.4z M496.8,28.2
					h3c1.5,0,2.1,0.3,2.3,0.5c0.3,0.3,0.5,0.6,0.5,1.1c0,0.5-0.2,0.9-0.5,1.2c-0.2,0.2-0.8,0.5-2.2,0.5h-3.1V28.2L496.8,28.2z"/>
			</g>
		</g>
	</g>
</g>
<g>
	<g id="TIME_C">
		<g>
			<g>
				<g>
					<rect x="593.3" y="251.6" class="st1" width="138.2" height="77.8"/>
					<rect x="592.9" y="335" class="st2" width="29.8" height="43.2"/>
					<rect x="629.3" y="335" class="st2" width="29.8" height="43.2"/>
					<rect x="665.7" y="335" class="st2" width="29.8" height="43.2"/>
					<rect x="702" y="335" class="st2" width="29.8" height="43.2"/>
					<g>
						<path class="st3" d="M611.6,356.8H604l-1,3.5h-6.8l8.1-21.5h7.2l8.1,21.5h-6.9L611.6,356.8z M610.2,352.2l-2.4-7.7l-2.3,7.7
							H610.2z"/>
					</g>
					<g>
						<path class="st3" d="M634.7,338.9h12.4c2.1,0,3.7,0.5,4.8,1.5s1.7,2.3,1.7,3.8c0,1.3-0.4,2.4-1.2,3.3
							c-0.5,0.6-1.3,1.1-2.3,1.4c1.5,0.4,2.7,1,3.4,1.9s1.1,2,1.1,3.4c0,1.1-0.3,2.1-0.8,3s-1.2,1.6-2.1,2.1
							c-0.6,0.3-1.4,0.6-2.5,0.7c-1.5,0.2-2.5,0.3-3,0.3h-11.5V338.9z M641.4,347.3h2.9c1,0,1.8-0.2,2.2-0.5s0.6-0.9,0.6-1.5
							c0-0.6-0.2-1.1-0.6-1.5s-1.1-0.5-2.1-0.5h-2.9V347.3z M641.4,355.8h3.4c1.1,0,1.9-0.2,2.4-0.6s0.7-0.9,0.7-1.6
							c0-0.6-0.2-1.1-0.7-1.5s-1.3-0.6-2.4-0.6h-3.4V355.8z"/>
					</g>
					<g>
						<path class="st3" d="M685.4,351.6l5.8,1.8c-0.4,1.6-1,3-1.8,4.1s-1.9,1.9-3.1,2.5s-2.8,0.8-4.8,0.8c-2.3,0-4.2-0.3-5.7-1
							c-1.5-0.7-2.8-1.9-3.8-3.6c-1.1-1.7-1.6-3.9-1.6-6.6c0-3.6,0.9-6.3,2.8-8.2c1.9-1.9,4.6-2.9,8-2.9c2.7,0,4.8,0.5,6.4,1.6
							s2.7,2.8,3.4,5l-5.9,1.3c-0.2-0.7-0.4-1.1-0.6-1.4c-0.4-0.5-0.8-0.9-1.4-1.2s-1.1-0.4-1.8-0.4c-1.5,0-2.7,0.6-3.5,1.8
							c-0.6,0.9-0.9,2.3-0.9,4.2c0,2.4,0.4,4,1.1,4.9c0.7,0.9,1.7,1.3,3,1.3c1.3,0,2.2-0.4,2.9-1.1S685.1,353,685.4,351.6z"/>
					</g>
					<g>
						<path class="st3" d="M707.6,338.9h9.9c1.9,0,3.5,0.3,4.7,0.8s2.2,1.3,3,2.3s1.3,2.1,1.7,3.4s0.5,2.7,0.5,4.2
							c0,2.3-0.3,4.1-0.8,5.3s-1.2,2.3-2.2,3.2s-1.9,1.4-3,1.7c-1.5,0.4-2.8,0.6-4,0.6h-9.9V338.9z M714.2,343.8v11.7h1.6
							c1.4,0,2.4-0.2,3-0.5s1-0.8,1.4-1.6s0.5-2,0.5-3.7c0-2.3-0.4-3.8-1.1-4.7s-2-1.3-3.7-1.3H714.2z"/>
					</g>
				</g>
				<g>
					<polygon points="623.4,405.8 644.5,405.8 644.5,383.8 679.9,383.8 679.9,405.8 701,405.8 662.2,473.1 					"/>
					<path class="st3" d="M676.6,387.1v22h18.7l-33.1,57.3l-33.1-57.3h18.7v-22H676.6 M683.2,380.5h-6.6h-28.7h-6.6v6.6v15.4h-12.1
						h-11.5l5.7,10l33.1,57.3l5.7,9.9l5.7-9.9l33.1-57.3l5.7-10h-11.5h-12.1v-15.4V380.5L683.2,380.5z"/>
				</g>
			</g>
			<rect x="592.9" y="86.3" class="st2" width="29.8" height="43.2"/>
			<rect x="629.3" y="86.3" class="st2" width="29.8" height="43.2"/>
			<rect x="665.7" y="86.3" class="st2" width="29.8" height="43.2"/>
			<rect x="702" y="86.3" class="st2" width="29.8" height="43.2"/>
			<g>
				<path class="st3" d="M611.6,108.2H604l-1,3.5h-6.8l8.1-21.5h7.2l8.1,21.5h-6.9L611.6,108.2z M610.2,103.5l-2.4-7.7l-2.3,7.7
					H610.2z"/>
			</g>
			<g>
				<path class="st3" d="M634.7,90.2h12.4c2.1,0,3.7,0.5,4.8,1.5s1.7,2.3,1.7,3.8c0,1.3-0.4,2.4-1.2,3.3c-0.5,0.6-1.3,1.1-2.3,1.4
					c1.5,0.4,2.7,1,3.4,1.9s1.1,2,1.1,3.4c0,1.1-0.3,2.1-0.8,3s-1.2,1.6-2.1,2.1c-0.6,0.3-1.4,0.6-2.5,0.7c-1.5,0.2-2.5,0.3-3,0.3
					h-11.5V90.2z M641.4,98.7h2.9c1,0,1.8-0.2,2.2-0.5s0.6-0.9,0.6-1.5c0-0.6-0.2-1.1-0.6-1.5s-1.1-0.5-2.1-0.5h-2.9V98.7z
					 M641.4,107.1h3.4c1.1,0,1.9-0.2,2.4-0.6s0.7-0.9,0.7-1.6c0-0.6-0.2-1.1-0.7-1.5s-1.3-0.6-2.4-0.6h-3.4V107.1z"/>
			</g>
			<g>
				<path class="st3" d="M685.4,102.9l5.8,1.8c-0.4,1.6-1,3-1.8,4.1s-1.9,1.9-3.1,2.5s-2.8,0.8-4.8,0.8c-2.3,0-4.2-0.3-5.7-1
					c-1.5-0.7-2.8-1.9-3.8-3.6c-1.1-1.7-1.6-3.9-1.6-6.6c0-3.6,0.9-6.3,2.8-8.2c1.9-1.9,4.6-2.9,8-2.9c2.7,0,4.8,0.5,6.4,1.6
					s2.7,2.8,3.4,5l-5.9,1.3c-0.2-0.7-0.4-1.1-0.6-1.4c-0.4-0.5-0.8-0.9-1.4-1.2s-1.1-0.4-1.8-0.4c-1.5,0-2.7,0.6-3.5,1.8
					c-0.6,0.9-0.9,2.3-0.9,4.2c0,2.4,0.4,4,1.1,4.9c0.7,0.9,1.7,1.3,3,1.3c1.3,0,2.2-0.4,2.9-1.1S685.1,104.3,685.4,102.9z"/>
			</g>
			<g>
				<path class="st3" d="M707.6,90.2h9.9c1.9,0,3.5,0.3,4.7,0.8s2.2,1.3,3,2.3s1.3,2.1,1.7,3.4s0.5,2.7,0.5,4.2
					c0,2.3-0.3,4.1-0.8,5.3s-1.2,2.3-2.2,3.2s-1.9,1.4-3,1.7c-1.5,0.4-2.8,0.6-4,0.6h-9.9V90.2z M714.2,95.1v11.7h1.6
					c1.4,0,2.4-0.2,3-0.5s1-0.8,1.4-1.6s0.5-2,0.5-3.7c0-2.3-0.4-3.8-1.1-4.7s-2-1.3-3.7-1.3H714.2z"/>
			</g>
			<g>
				<polygon points="623.4,157.2 644.5,157.2 644.5,135.1 679.9,135.1 679.9,157.2 701,157.2 662.2,224.4 				"/>
				<path class="st3" d="M676.6,138.5v22h18.7l-33.1,57.3l-33.1-57.3h18.7v-22H676.6 M683.2,131.8h-6.6h-28.7h-6.6v6.6v15.4h-12.1
					h-11.5l5.7,10l33.1,57.3l5.7,9.9l5.7-9.9l33.1-57.3l5.7-10h-11.5h-12.1v-15.4V131.8L683.2,131.8z"/>
			</g>
			<g>
				<g>
					<rect x="593.3" y="493.8" class="st1" width="138.2" height="77.8"/>
					<rect x="592.9" y="577.1" class="st2" width="29.8" height="43.2"/>
					<rect x="629.3" y="577.1" class="st2" width="29.8" height="43.2"/>
					<rect x="665.7" y="577.1" class="st2" width="29.8" height="43.2"/>
					<rect x="702" y="577.1" class="st2" width="29.8" height="43.2"/>
					<g>
						<path class="st3" d="M611.6,599H604l-1,3.5h-6.8l8.1-21.5h7.2l8.1,21.5h-6.9L611.6,599z M610.2,594.4l-2.4-7.7l-2.3,7.7H610.2
							z"/>
					</g>
					<g>
						<path class="st3" d="M634.7,581.1h12.4c2.1,0,3.7,0.5,4.8,1.5s1.7,2.3,1.7,3.8c0,1.3-0.4,2.4-1.2,3.3
							c-0.5,0.6-1.3,1.1-2.3,1.4c1.5,0.4,2.7,1,3.4,1.9s1.1,2,1.1,3.4c0,1.1-0.3,2.1-0.8,3s-1.2,1.6-2.1,2.1
							c-0.6,0.3-1.4,0.6-2.5,0.7c-1.5,0.2-2.5,0.3-3,0.3h-11.5V581.1z M641.4,589.5h2.9c1,0,1.8-0.2,2.2-0.5s0.6-0.9,0.6-1.5
							c0-0.6-0.2-1.1-0.6-1.5s-1.1-0.5-2.1-0.5h-2.9V589.5z M641.4,597.9h3.4c1.1,0,1.9-0.2,2.4-0.6s0.7-0.9,0.7-1.6
							c0-0.6-0.2-1.1-0.7-1.5s-1.3-0.6-2.4-0.6h-3.4V597.9z"/>
					</g>
					<g>
						<path class="st3" d="M685.4,593.8l5.8,1.8c-0.4,1.6-1,3-1.8,4.1s-1.9,1.9-3.1,2.5s-2.8,0.8-4.8,0.8c-2.3,0-4.2-0.3-5.7-1
							c-1.5-0.7-2.8-1.9-3.8-3.6c-1.1-1.7-1.6-3.9-1.6-6.6c0-3.6,0.9-6.3,2.8-8.2c1.9-1.9,4.6-2.9,8-2.9c2.7,0,4.8,0.5,6.4,1.6
							s2.7,2.8,3.4,5l-5.9,1.3c-0.2-0.7-0.4-1.1-0.6-1.4c-0.4-0.5-0.8-0.9-1.4-1.2s-1.1-0.4-1.8-0.4c-1.5,0-2.7,0.6-3.5,1.8
							c-0.6,0.9-0.9,2.3-0.9,4.2c0,2.4,0.4,4,1.1,4.9c0.7,0.9,1.7,1.3,3,1.3c1.3,0,2.2-0.4,2.9-1.1S685.1,595.1,685.4,593.8z"/>
					</g>
					<g>
						<path class="st3" d="M707.6,581.1h9.9c1.9,0,3.5,0.3,4.7,0.8s2.2,1.3,3,2.3s1.3,2.1,1.7,3.4s0.5,2.7,0.5,4.2
							c0,2.3-0.3,4.1-0.8,5.3s-1.2,2.3-2.2,3.2s-1.9,1.4-3,1.7c-1.5,0.4-2.8,0.6-4,0.6h-9.9V581.1z M714.2,585.9v11.7h1.6
							c1.4,0,2.4-0.2,3-0.5s1-0.8,1.4-1.6s0.5-2,0.5-3.7c0-2.3-0.4-3.8-1.1-4.7s-2-1.3-3.7-1.3H714.2z"/>
					</g>
				</g>
				<g>
					<polygon points="623.4,648 644.5,648 644.5,626 679.9,626 679.9,648 701,648 662.2,715.2 					"/>
					<path class="st3" d="M676.6,629.3v22h18.7l-33.1,57.3l-33.1-57.3h18.7v-22H676.6 M683.2,622.6h-6.6h-28.7h-6.6v6.6v15.4h-12.1
						h-11.5l5.7,10l33.1,57.3l5.7,9.9l5.7-9.9l33.1-57.3l5.7-10h-11.5h-12.1v-15.4V622.6L683.2,622.6z"/>
				</g>
			</g>
			<g>
				<g>
					<rect x="593.3" y="735.9" class="st1" width="138.2" height="77.8"/>
					<rect x="592.9" y="819.3" class="st2" width="29.8" height="43.2"/>
					<rect x="629.3" y="819.3" class="st2" width="29.8" height="43.2"/>
					<rect x="665.7" y="819.3" class="st2" width="29.8" height="43.2"/>
					<rect x="702" y="819.3" class="st2" width="29.8" height="43.2"/>
					<g>
						<path class="st3" d="M611.6,841.1H604l-1,3.5h-6.8l8.1-21.5h7.2l8.1,21.5h-6.9L611.6,841.1z M610.2,836.5l-2.4-7.7l-2.3,7.7
							H610.2z"/>
					</g>
					<g>
						<path class="st3" d="M634.7,823.2h12.4c2.1,0,3.7,0.5,4.8,1.5s1.7,2.3,1.7,3.8c0,1.3-0.4,2.4-1.2,3.3
							c-0.5,0.6-1.3,1.1-2.3,1.4c1.5,0.4,2.7,1,3.4,1.9s1.1,2,1.1,3.4c0,1.1-0.3,2.1-0.8,3s-1.2,1.6-2.1,2.1
							c-0.6,0.3-1.4,0.6-2.5,0.7c-1.5,0.2-2.5,0.3-3,0.3h-11.5V823.2z M641.4,831.6h2.9c1,0,1.8-0.2,2.2-0.5s0.6-0.9,0.6-1.5
							c0-0.6-0.2-1.1-0.6-1.5s-1.1-0.5-2.1-0.5h-2.9V831.6z M641.4,840.1h3.4c1.1,0,1.9-0.2,2.4-0.6s0.7-0.9,0.7-1.6
							c0-0.6-0.2-1.1-0.7-1.5s-1.3-0.6-2.4-0.6h-3.4V840.1z"/>
					</g>
					<g>
						<path class="st3" d="M685.4,835.9l5.8,1.8c-0.4,1.6-1,3-1.8,4.1s-1.9,1.9-3.1,2.5s-2.8,0.8-4.8,0.8c-2.3,0-4.2-0.3-5.7-1
							c-1.5-0.7-2.8-1.9-3.8-3.6c-1.1-1.7-1.6-3.9-1.6-6.6c0-3.6,0.9-6.3,2.8-8.2c1.9-1.9,4.6-2.9,8-2.9c2.7,0,4.8,0.5,6.4,1.6
							s2.7,2.8,3.4,5l-5.9,1.3c-0.2-0.7-0.4-1.1-0.6-1.4c-0.4-0.5-0.8-0.9-1.4-1.2s-1.1-0.4-1.8-0.4c-1.5,0-2.7,0.6-3.5,1.8
							c-0.6,0.9-0.9,2.3-0.9,4.2c0,2.4,0.4,4,1.1,4.9c0.7,0.9,1.7,1.3,3,1.3c1.3,0,2.2-0.4,2.9-1.1S685.1,837.3,685.4,835.9z"/>
					</g>
					<g>
						<path class="st3" d="M707.6,823.2h9.9c1.9,0,3.5,0.3,4.7,0.8s2.2,1.3,3,2.3s1.3,2.1,1.7,3.4s0.5,2.7,0.5,4.2
							c0,2.3-0.3,4.1-0.8,5.3s-1.2,2.3-2.2,3.2s-1.9,1.4-3,1.7c-1.5,0.4-2.8,0.6-4,0.6h-9.9V823.2z M714.2,828.1v11.7h1.6
							c1.4,0,2.4-0.2,3-0.5s1-0.8,1.4-1.6s0.5-2,0.5-3.7c0-2.3-0.4-3.8-1.1-4.7s-2-1.3-3.7-1.3H714.2z"/>
					</g>
				</g>
				<g>
					<polygon points="623.4,890.2 644.5,890.2 644.5,868.1 679.9,868.1 679.9,890.2 701,890.2 662.2,957.4 					"/>
					<path class="st3" d="M676.6,871.4v22h18.7l-33.1,57.3l-33.1-57.3h18.7v-22H676.6 M683.2,864.8h-6.6h-28.7h-6.6v6.6v15.4h-12.1
						h-11.5l5.7,10l33.1,57.3l5.7,9.9l5.7-9.9l33.1-57.3l5.7-10h-11.5h-12.1v-15.4V864.8L683.2,864.8z"/>
				</g>
			</g>
			<g>
				<g>
					<rect x="593.3" y="978.1" class="st1" width="138.2" height="77.8"/>
					<rect x="592.9" y="1061.4" class="st2" width="29.8" height="43.2"/>
					<rect x="629.3" y="1061.4" class="st2" width="29.8" height="43.2"/>
					<rect x="665.7" y="1061.4" class="st2" width="29.8" height="43.2"/>
					<rect x="702" y="1061.4" class="st2" width="29.8" height="43.2"/>
					<g>
						<path class="st3" d="M611.6,1083.3H604l-1,3.5h-6.8l8.1-21.5h7.2l8.1,21.5h-6.9L611.6,1083.3z M610.2,1078.7l-2.4-7.7
							l-2.3,7.7H610.2z"/>
					</g>
					<g>
						<path class="st3" d="M634.7,1065.4h12.4c2.1,0,3.7,0.5,4.8,1.5s1.7,2.3,1.7,3.8c0,1.3-0.4,2.4-1.2,3.3
							c-0.5,0.6-1.3,1.1-2.3,1.4c1.5,0.4,2.7,1,3.4,1.9s1.1,2,1.1,3.4c0,1.1-0.3,2.1-0.8,3s-1.2,1.6-2.1,2.1
							c-0.6,0.3-1.4,0.6-2.5,0.7c-1.5,0.2-2.5,0.3-3,0.3h-11.5V1065.4z M641.4,1073.8h2.9c1,0,1.8-0.2,2.2-0.5s0.6-0.9,0.6-1.5
							c0-0.6-0.2-1.1-0.6-1.5s-1.1-0.5-2.1-0.5h-2.9V1073.8z M641.4,1082.2h3.4c1.1,0,1.9-0.2,2.4-0.6s0.7-0.9,0.7-1.6
							c0-0.6-0.2-1.1-0.7-1.5s-1.3-0.6-2.4-0.6h-3.4V1082.2z"/>
					</g>
					<g>
						<path class="st3" d="M685.4,1078.1l5.8,1.8c-0.4,1.6-1,3-1.8,4.1s-1.9,1.9-3.1,2.5s-2.8,0.8-4.8,0.8c-2.3,0-4.2-0.3-5.7-1
							c-1.5-0.7-2.8-1.9-3.8-3.6c-1.1-1.7-1.6-3.9-1.6-6.6c0-3.6,0.9-6.3,2.8-8.2c1.9-1.9,4.6-2.9,8-2.9c2.7,0,4.8,0.5,6.4,1.6
							s2.7,2.8,3.4,5l-5.9,1.3c-0.2-0.7-0.4-1.1-0.6-1.4c-0.4-0.5-0.8-0.9-1.4-1.2s-1.1-0.4-1.8-0.4c-1.5,0-2.7,0.6-3.5,1.8
							c-0.6,0.9-0.9,2.3-0.9,4.2c0,2.4,0.4,4,1.1,4.9c0.7,0.9,1.7,1.3,3,1.3c1.3,0,2.2-0.4,2.9-1.1S685.1,1079.4,685.4,1078.1z"/>
					</g>
					<g>
						<path class="st3" d="M707.6,1065.4h9.9c1.9,0,3.5,0.3,4.7,0.8s2.2,1.3,3,2.3s1.3,2.1,1.7,3.4s0.5,2.7,0.5,4.2
							c0,2.3-0.3,4.1-0.8,5.3s-1.2,2.3-2.2,3.2s-1.9,1.4-3,1.7c-1.5,0.4-2.8,0.6-4,0.6h-9.9V1065.4z M714.2,1070.2v11.7h1.6
							c1.4,0,2.4-0.2,3-0.5s1-0.8,1.4-1.6s0.5-2,0.5-3.7c0-2.3-0.4-3.8-1.1-4.7s-2-1.3-3.7-1.3H714.2z"/>
					</g>
				</g>
				<g>
					<polygon points="623.4,1132.3 644.5,1132.3 644.5,1110.3 679.9,1110.3 679.9,1132.3 701,1132.3 662.2,1199.6 					"/>
					<path class="st3" d="M676.6,1113.6v22h18.7l-33.1,57.3l-33.1-57.3h18.7v-22H676.6 M683.2,1106.9h-6.6h-28.7h-6.6v6.6v15.4
						h-12.1h-11.5l5.7,10l33.1,57.3l5.7,9.9l5.7-9.9l33.1-57.3l5.7-10h-11.5h-12.1v-15.4V1106.9L683.2,1106.9z"/>
				</g>
			</g>
			<g>
				<g>
					<rect x="593.1" y="1220.3" class="st1" width="138.2" height="77.8"/>
					<rect x="592.7" y="1303.6" class="st2" width="29.8" height="43.2"/>
					<rect x="629.1" y="1303.6" class="st2" width="29.8" height="43.2"/>
					<rect x="665.5" y="1303.6" class="st2" width="29.8" height="43.2"/>
					<rect x="701.8" y="1303.6" class="st2" width="29.8" height="43.2"/>
					<g>
						<path class="st3" d="M611.3,1325.5h-7.5l-1,3.5H596l8.1-21.5h7.2l8.1,21.5h-6.9L611.3,1325.5z M610,1320.8l-2.4-7.7l-2.3,7.7
							H610z"/>
					</g>
					<g>
						<path class="st3" d="M634.5,1307.5H647c2.1,0,3.7,0.5,4.8,1.5s1.7,2.3,1.7,3.8c0,1.3-0.4,2.4-1.2,3.3
							c-0.5,0.6-1.3,1.1-2.3,1.4c1.5,0.4,2.7,1,3.4,1.9s1.1,2,1.1,3.4c0,1.1-0.3,2.1-0.8,3s-1.2,1.6-2.1,2.1
							c-0.6,0.3-1.4,0.6-2.5,0.7c-1.5,0.2-2.5,0.3-3,0.3h-11.5V1307.5z M641.2,1316h2.9c1,0,1.8-0.2,2.2-0.5s0.6-0.9,0.6-1.5
							c0-0.6-0.2-1.1-0.6-1.5s-1.1-0.5-2.1-0.5h-2.9V1316z M641.2,1324.4h3.4c1.1,0,1.9-0.2,2.4-0.6s0.7-0.9,0.7-1.6
							c0-0.6-0.2-1.1-0.7-1.5s-1.3-0.6-2.4-0.6h-3.4V1324.4z"/>
					</g>
					<g>
						<path class="st3" d="M685.2,1320.2l5.8,1.8c-0.4,1.6-1,3-1.8,4.1s-1.9,1.9-3.1,2.5s-2.8,0.8-4.8,0.8c-2.3,0-4.2-0.3-5.7-1
							c-1.5-0.7-2.8-1.9-3.8-3.6c-1.1-1.7-1.6-3.9-1.6-6.6c0-3.6,0.9-6.3,2.8-8.2c1.9-1.9,4.6-2.9,8-2.9c2.7,0,4.8,0.5,6.4,1.6
							s2.7,2.8,3.4,5l-5.9,1.3c-0.2-0.7-0.4-1.1-0.6-1.4c-0.4-0.5-0.8-0.9-1.4-1.2s-1.1-0.4-1.8-0.4c-1.5,0-2.7,0.6-3.5,1.8
							c-0.6,0.9-0.9,2.3-0.9,4.2c0,2.4,0.4,4,1.1,4.9c0.7,0.9,1.7,1.3,3,1.3c1.3,0,2.2-0.4,2.9-1.1S684.9,1321.6,685.2,1320.2z"/>
					</g>
					<g>
						<path class="st3" d="M707.3,1307.5h9.9c1.9,0,3.5,0.3,4.7,0.8s2.2,1.3,3,2.3s1.3,2.1,1.7,3.4s0.5,2.7,0.5,4.2
							c0,2.3-0.3,4.1-0.8,5.3s-1.2,2.3-2.2,3.2s-1.9,1.4-3,1.7c-1.5,0.4-2.8,0.6-4,0.6h-9.9V1307.5z M714,1312.4v11.7h1.6
							c1.4,0,2.4-0.2,3-0.5s1-0.8,1.4-1.6s0.5-2,0.5-3.7c0-2.3-0.4-3.8-1.1-4.7s-2-1.3-3.7-1.3H714z"/>
					</g>
				</g>
				<g>
					<polygon points="623.2,1374.5 644.3,1374.5 644.3,1352.4 679.7,1352.4 679.7,1374.5 700.8,1374.5 662,1441.7 					"/>
					<path class="st3" d="M676.4,1355.7v22h18.7l-33.1,57.3l-33.1-57.3h18.7v-22H676.4 M683,1349.1h-6.6h-28.7H641v6.6v15.4h-12.1
						h-11.5l5.7,10l33.1,57.3l5.7,9.9l5.7-9.9l33.1-57.3l5.7-10h-11.5H683v-15.4V1349.1L683,1349.1z"/>
				</g>
			</g>
			<rect x="593.1" y="1462.4" class="st1" width="138.2" height="77.8"/>
			<g>
				<rect x="647.3" y="1545.2" class="st2" width="29.8" height="43.2"/>
				<g>
					<path class="st3" d="M648.2,1560.6h7.6v2.1H651v1.6h4.4v2H651v2h4.9v2.3h-7.7V1560.6z"/>
					<path class="st3" d="M657.5,1560.6h2.6l3.4,5.5v-5.5h2.7v10h-2.7l-3.4-5.5v5.5h-2.7V1560.6z"/>
					<path class="st3" d="M668.1,1560.6h4.2c0.8,0,1.5,0.1,2,0.4c0.5,0.2,0.9,0.6,1.3,1.1c0.3,0.5,0.6,1,0.7,1.6s0.2,1.3,0.2,1.9
						c0,1.1-0.1,1.9-0.3,2.5s-0.5,1.1-0.9,1.5c-0.4,0.4-0.8,0.7-1.3,0.8c-0.6,0.2-1.2,0.3-1.7,0.3h-4.2V1560.6z M670.9,1562.9v5.4
						h0.7c0.6,0,1-0.1,1.3-0.2s0.4-0.4,0.6-0.7c0.1-0.4,0.2-0.9,0.2-1.7c0-1.1-0.2-1.8-0.5-2.2c-0.3-0.4-0.8-0.6-1.6-0.6H670.9z"/>
				</g>
			</g>
		</g>
		<g>
			<g>
				<polygon points="552.1,38.5 552.1,19 544,19 544,11.7 569.2,11.7 569.2,19 561.1,19 561.1,38.5 				"/>
				<path class="st3" d="M568.7,12.2v6.4h-8.1V38h-8V18.5h-8.1v-6.4H568.7 M569.7,11.2h-1h-24.2h-1v1v6.4v1h1h7.1V38v1h1h8h1v-1
					V19.5h7.1h1v-1v-6.4V11.2L569.7,11.2z"/>
			</g>
			<g>
				<rect x="572.1" y="11.7" width="9" height="26.8"/>
				<path class="st3" d="M580.6,12.2V38h-8V12.2H580.6 M581.6,11.2h-1h-8h-1v1V38v1h1h8h1v-1V12.2V11.2L581.6,11.2z"/>
			</g>
			<g>
				<polygon points="608.2,38.5 608.2,22.3 604,38.5 597.4,38.5 593.2,22.3 593.2,38.5 585.7,38.5 585.7,11.7 597.1,11.7 
					600.7,25.9 604.3,11.7 615.7,11.7 615.7,38.5 				"/>
				<path class="st3" d="M615.2,12.2V38h-6.5V18.3l-5,19.7h-5.9l-5-19.7V38h-6.5V12.2h10.5l4,15.7l4-15.7H615.2 M616.2,11.2h-1
					h-10.5H604l-0.2,0.8l-3,11.9l-3.1-11.9l-0.2-0.8h-0.8h-10.5h-1v1V38v1h1h6.5h1v-1V26.3l3,11.9L597,39h0.8h5.9h0.8l0.2-0.8
					l3.1-12V38v1h1h6.5h1v-1V12.2V11.2L616.2,11.2z"/>
			</g>
			<g>
				<polygon points="619.8,38.5 619.8,11.7 642.1,11.7 642.1,18.2 628.7,18.2 628.7,21.3 641.1,21.3 641.1,27.5 628.7,27.5 
					628.7,31.6 642.5,31.6 642.5,38.5 				"/>
				<path class="st3" d="M641.6,12.2v5.5h-13.4v4.1h12.4V27h-12.4v5.1H642V38h-21.7V12.2H641.6 M642.6,11.2h-1h-21.3h-1v1V38v1h1
					H642h1v-1v-5.8v-1h-1h-12.7V28h11.4h1v-1v-5.3v-1h-1h-11.4v-2.1h12.4h1v-1v-5.5V11.2L642.6,11.2z"/>
			</g>
			<g>
				<polygon points="645.8,38.5 645.8,11.7 654.7,11.7 654.7,31.1 667.2,31.1 667.2,38.5 				"/>
				<path class="st3" d="M654.2,12.2v19.4h12.4V38h-20.4V12.2H654.2 M655.2,11.2h-1h-8h-1v1V38v1h1h20.4h1v-1v-6.3v-1h-1h-11.4V12.2
					V11.2L655.2,11.2z"/>
			</g>
			<g>
				<rect x="670.1" y="11.7" width="9" height="26.8"/>
				<path class="st3" d="M678.6,12.2V38h-8V12.2H678.6 M679.6,11.2h-1h-8h-1v1V38v1h1h8h1v-1V12.2V11.2L679.6,11.2z"/>
			</g>
			<g>
				<polygon points="701.2,38.5 692.3,25.4 692.3,38.5 683.9,38.5 683.9,11.7 692.1,11.7 701,24.8 701,11.7 709.5,11.7 709.5,38.5 
									"/>
				<path class="st3" d="M709,12.2V38h-7.5l-9.7-14.1V38h-7.5V12.2h7.4l9.7,14.3V12.2H709 M710,11.2h-1h-7.5h-1v1v11l-7.9-11.6
					l-0.3-0.4h-0.5h-7.4h-1v1V38v1h1h7.5h1v-1V27l7.8,11.5L701,39h0.5h7.5h1v-1V12.2V11.2L710,11.2z"/>
			</g>
			<g>
				<polygon points="713.8,38.5 713.8,11.7 736.1,11.7 736.1,18.2 722.8,18.2 722.8,21.3 735.1,21.3 735.1,27.5 722.8,27.5 
					722.8,31.6 736.5,31.6 736.5,38.5 				"/>
				<path class="st3" d="M735.6,12.2v5.5h-13.4v4.1h12.4V27h-12.4v5.1H736V38h-21.7V12.2H735.6 M736.6,11.2h-1h-21.3h-1v1V38v1h1
					H736h1v-1v-5.8v-1h-1h-12.7V28h11.4h1v-1v-5.3v-1h-1h-11.4v-2.1h12.4h1v-1v-5.5V11.2L736.6,11.2z"/>
			</g>
			<g>
				<path d="M764.8,38.9c-2.9,0-5.2-0.4-7.1-1.3c-1.9-0.9-3.5-2.4-4.8-4.5c-1.3-2.1-2-4.9-2-8.1c0-4.4,1.2-7.8,3.5-10.2
					c2.4-2.4,5.7-3.6,10-3.6c3.3,0,6,0.7,7.9,2.1c1.9,1.4,3.4,3.5,4.3,6.3l0.2,0.5l-8,1.8l-0.1-0.4c-0.2-0.7-0.5-1.3-0.7-1.6
					c-0.4-0.5-0.9-1-1.5-1.3c-0.6-0.3-1.2-0.4-1.9-0.4c-1.6,0-2.9,0.6-3.7,2c-0.7,1-1,2.6-1,4.8c0,2.7,0.4,4.6,1.2,5.6
					c0.8,0.9,1.8,1.4,3.3,1.4c1.4,0,2.4-0.4,3.1-1.1c0.7-0.8,1.2-2,1.6-3.5l0.1-0.5l7.9,2.4l-0.1,0.5c-0.5,2-1.3,3.7-2.3,5.1
					c-1.1,1.4-2.4,2.4-3.9,3.1C769.1,38.5,767.1,38.9,764.8,38.9z"/>
				<path class="st3" d="M764.4,11.7c3.2,0,5.8,0.7,7.7,2s3.2,3.3,4.1,6l-7,1.6c-0.2-0.8-0.5-1.4-0.8-1.7c-0.4-0.6-1-1.1-1.6-1.4
					s-1.4-0.5-2.2-0.5c-1.8,0-3.2,0.7-4.1,2.2c-0.7,1.1-1.1,2.8-1.1,5.1c0,2.9,0.4,4.8,1.3,5.9c0.9,1.1,2.1,1.6,3.7,1.6
					c1.5,0,2.7-0.4,3.5-1.3c0.8-0.9,1.3-2.1,1.7-3.7l7,2.1c-0.5,2-1.2,3.6-2.2,4.9s-2.3,2.3-3.8,3c-1.5,0.7-3.4,1-5.7,1
					c-2.8,0-5.1-0.4-6.9-1.2c-1.8-0.8-3.3-2.2-4.6-4.3c-1.3-2-1.9-4.7-1.9-7.9c0-4.3,1.1-7.5,3.4-9.8
					C757,12.9,760.2,11.7,764.4,11.7 M764.4,10.7c-4.4,0-7.9,1.3-10.3,3.7c-2.4,2.5-3.7,6-3.7,10.5c0,3.4,0.7,6.2,2.1,8.4
					c1.4,2.2,3.1,3.8,5,4.7c1.9,0.9,4.3,1.3,7.3,1.3c2.4,0,4.5-0.4,6.1-1.1c1.6-0.7,3-1.8,4.1-3.3c1.1-1.4,1.9-3.2,2.4-5.3l0.2-0.9
					l-0.9-0.3l-7-2.1l-1-0.3l-0.2,1.1c-0.3,1.4-0.8,2.5-1.5,3.3c-0.6,0.6-1.5,1-2.7,1c-1.3,0-2.2-0.4-2.9-1.2
					c-0.5-0.6-1.1-2-1.1-5.2c0-2.1,0.3-3.6,0.9-4.5c0.8-1.2,1.9-1.7,3.3-1.7c0.6,0,1.2,0.1,1.7,0.4c0.5,0.3,0.9,0.6,1.3,1.1
					c0.1,0.2,0.4,0.6,0.6,1.4l0.3,0.9l0.9-0.2l7-1.6l1.1-0.2l-0.3-1.1c-1-2.9-2.5-5.1-4.5-6.5C770.6,11.5,767.8,10.7,764.4,10.7
					L764.4,10.7z"/>
			</g>
		</g>
	</g>
</g>
<g id="TIME_D">
	<g>
		<g>
			<g>
				<rect x="865.3" y="251.6" class="st1" width="138.2" height="77.8"/>
				<rect x="864.9" y="335" class="st2" width="29.8" height="43.2"/>
				<rect x="901.3" y="335" class="st2" width="29.8" height="43.2"/>
				<rect x="937.7" y="335" class="st2" width="29.8" height="43.2"/>
				<rect x="974" y="335" class="st2" width="29.8" height="43.2"/>
				<g>
					<path class="st3" d="M883.6,356.8H876l-1,3.5h-6.8l8.1-21.5h7.2l8.1,21.5h-6.9L883.6,356.8z M882.2,352.2l-2.4-7.7l-2.3,7.7
						H882.2z"/>
				</g>
				<g>
					<path class="st3" d="M906.7,338.9h12.4c2.1,0,3.7,0.5,4.8,1.5s1.7,2.3,1.7,3.8c0,1.3-0.4,2.4-1.2,3.3c-0.5,0.6-1.3,1.1-2.3,1.4
						c1.5,0.4,2.7,1,3.4,1.9s1.1,2,1.1,3.4c0,1.1-0.3,2.1-0.8,3s-1.2,1.6-2.1,2.1c-0.6,0.3-1.4,0.6-2.5,0.7c-1.5,0.2-2.5,0.3-3,0.3
						h-11.5V338.9z M913.4,347.3h2.9c1,0,1.8-0.2,2.2-0.5s0.6-0.9,0.6-1.5c0-0.6-0.2-1.1-0.6-1.5s-1.1-0.5-2.1-0.5h-2.9V347.3z
						 M913.4,355.8h3.4c1.1,0,1.9-0.2,2.4-0.6s0.7-0.9,0.7-1.6c0-0.6-0.2-1.1-0.7-1.5s-1.3-0.6-2.4-0.6h-3.4V355.8z"/>
				</g>
				<g>
					<path class="st3" d="M957.4,351.6l5.8,1.8c-0.4,1.6-1,3-1.8,4.1s-1.9,1.9-3.1,2.5s-2.8,0.8-4.8,0.8c-2.3,0-4.2-0.3-5.7-1
						c-1.5-0.7-2.8-1.9-3.8-3.6c-1.1-1.7-1.6-3.9-1.6-6.6c0-3.6,0.9-6.3,2.8-8.2c1.9-1.9,4.6-2.9,8-2.9c2.7,0,4.8,0.5,6.4,1.6
						s2.7,2.8,3.4,5l-5.9,1.3c-0.2-0.7-0.4-1.1-0.6-1.4c-0.4-0.5-0.8-0.9-1.4-1.2s-1.1-0.4-1.8-0.4c-1.5,0-2.7,0.6-3.5,1.8
						c-0.6,0.9-0.9,2.3-0.9,4.2c0,2.4,0.4,4,1.1,4.9c0.7,0.9,1.7,1.3,3,1.3c1.3,0,2.2-0.4,2.9-1.1S957.1,353,957.4,351.6z"/>
				</g>
				<g>
					<path class="st3" d="M979.6,338.9h9.9c1.9,0,3.5,0.3,4.7,0.8s2.2,1.3,3,2.3s1.3,2.1,1.7,3.4s0.5,2.7,0.5,4.2
						c0,2.3-0.3,4.1-0.8,5.3s-1.2,2.3-2.2,3.2s-1.9,1.4-3,1.7c-1.5,0.4-2.8,0.6-4,0.6h-9.9V338.9z M986.2,343.8v11.7h1.6
						c1.4,0,2.4-0.2,3-0.5s1-0.8,1.4-1.6s0.5-2,0.5-3.7c0-2.3-0.4-3.8-1.1-4.7s-2-1.3-3.7-1.3H986.2z"/>
				</g>
			</g>
			<g>
				<polygon points="895.4,405.8 916.5,405.8 916.5,383.8 951.9,383.8 951.9,405.8 973,405.8 934.2,473.1 				"/>
				<path class="st3" d="M948.6,387.1v22h18.7l-33.1,57.3l-33.1-57.3h18.7v-22H948.6 M955.2,380.5h-6.6h-28.7h-6.6v6.6v15.4h-12.1
					h-11.5l5.7,10l33.1,57.3l5.7,9.9l5.7-9.9l33.1-57.3l5.7-10h-11.5h-12.1v-15.4V380.5L955.2,380.5z"/>
			</g>
		</g>
		<rect x="864.9" y="86.3" class="st2" width="29.8" height="43.2"/>
		<rect x="901.3" y="86.3" class="st2" width="29.8" height="43.2"/>
		<rect x="937.7" y="86.3" class="st2" width="29.8" height="43.2"/>
		<rect x="974" y="86.3" class="st2" width="29.8" height="43.2"/>
		<g>
			<path class="st3" d="M883.6,108.2H876l-1,3.5h-6.8l8.1-21.5h7.2l8.1,21.5h-6.9L883.6,108.2z M882.2,103.5l-2.4-7.7l-2.3,7.7
				H882.2z"/>
		</g>
		<g>
			<path class="st3" d="M906.7,90.2h12.4c2.1,0,3.7,0.5,4.8,1.5s1.7,2.3,1.7,3.8c0,1.3-0.4,2.4-1.2,3.3c-0.5,0.6-1.3,1.1-2.3,1.4
				c1.5,0.4,2.7,1,3.4,1.9s1.1,2,1.1,3.4c0,1.1-0.3,2.1-0.8,3s-1.2,1.6-2.1,2.1c-0.6,0.3-1.4,0.6-2.5,0.7c-1.5,0.2-2.5,0.3-3,0.3
				h-11.5V90.2z M913.4,98.7h2.9c1,0,1.8-0.2,2.2-0.5s0.6-0.9,0.6-1.5c0-0.6-0.2-1.1-0.6-1.5s-1.1-0.5-2.1-0.5h-2.9V98.7z
				 M913.4,107.1h3.4c1.1,0,1.9-0.2,2.4-0.6s0.7-0.9,0.7-1.6c0-0.6-0.2-1.1-0.7-1.5s-1.3-0.6-2.4-0.6h-3.4V107.1z"/>
		</g>
		<g>
			<path class="st3" d="M957.4,102.9l5.8,1.8c-0.4,1.6-1,3-1.8,4.1s-1.9,1.9-3.1,2.5s-2.8,0.8-4.8,0.8c-2.3,0-4.2-0.3-5.7-1
				c-1.5-0.7-2.8-1.9-3.8-3.6c-1.1-1.7-1.6-3.9-1.6-6.6c0-3.6,0.9-6.3,2.8-8.2c1.9-1.9,4.6-2.9,8-2.9c2.7,0,4.8,0.5,6.4,1.6
				s2.7,2.8,3.4,5l-5.9,1.3c-0.2-0.7-0.4-1.1-0.6-1.4c-0.4-0.5-0.8-0.9-1.4-1.2s-1.1-0.4-1.8-0.4c-1.5,0-2.7,0.6-3.5,1.8
				c-0.6,0.9-0.9,2.3-0.9,4.2c0,2.4,0.4,4,1.1,4.9c0.7,0.9,1.7,1.3,3,1.3c1.3,0,2.2-0.4,2.9-1.1S957.1,104.3,957.4,102.9z"/>
		</g>
		<g>
			<path class="st3" d="M979.6,90.2h9.9c1.9,0,3.5,0.3,4.7,0.8s2.2,1.3,3,2.3s1.3,2.1,1.7,3.4s0.5,2.7,0.5,4.2
				c0,2.3-0.3,4.1-0.8,5.3s-1.2,2.3-2.2,3.2s-1.9,1.4-3,1.7c-1.5,0.4-2.8,0.6-4,0.6h-9.9V90.2z M986.2,95.1v11.7h1.6
				c1.4,0,2.4-0.2,3-0.5s1-0.8,1.4-1.6s0.5-2,0.5-3.7c0-2.3-0.4-3.8-1.1-4.7s-2-1.3-3.7-1.3H986.2z"/>
		</g>
		<g>
			<polygon points="895.4,157.2 916.5,157.2 916.5,135.1 951.9,135.1 951.9,157.2 973,157.2 934.2,224.4 			"/>
			<path class="st3" d="M948.6,138.5v22h18.7l-33.1,57.3l-33.1-57.3h18.7v-22H948.6 M955.2,131.8h-6.6h-28.7h-6.6v6.6v15.4h-12.1
				h-11.5l5.7,10l33.1,57.3l5.7,9.9l5.7-9.9l33.1-57.3l5.7-10h-11.5h-12.1v-15.4V131.8L955.2,131.8z"/>
		</g>
		<g>
			<g>
				<rect x="865.3" y="493.8" class="st1" width="138.2" height="77.8"/>
				<rect x="864.9" y="577.1" class="st2" width="29.8" height="43.2"/>
				<rect x="901.3" y="577.1" class="st2" width="29.8" height="43.2"/>
				<rect x="937.7" y="577.1" class="st2" width="29.8" height="43.2"/>
				<rect x="974" y="577.1" class="st2" width="29.8" height="43.2"/>
				<g>
					<path class="st3" d="M883.6,599H876l-1,3.5h-6.8l8.1-21.5h7.2l8.1,21.5h-6.9L883.6,599z M882.2,594.4l-2.4-7.7l-2.3,7.7H882.2z
						"/>
				</g>
				<g>
					<path class="st3" d="M906.7,581.1h12.4c2.1,0,3.7,0.5,4.8,1.5s1.7,2.3,1.7,3.8c0,1.3-0.4,2.4-1.2,3.3c-0.5,0.6-1.3,1.1-2.3,1.4
						c1.5,0.4,2.7,1,3.4,1.9s1.1,2,1.1,3.4c0,1.1-0.3,2.1-0.8,3s-1.2,1.6-2.1,2.1c-0.6,0.3-1.4,0.6-2.5,0.7c-1.5,0.2-2.5,0.3-3,0.3
						h-11.5V581.1z M913.4,589.5h2.9c1,0,1.8-0.2,2.2-0.5s0.6-0.9,0.6-1.5c0-0.6-0.2-1.1-0.6-1.5s-1.1-0.5-2.1-0.5h-2.9V589.5z
						 M913.4,597.9h3.4c1.1,0,1.9-0.2,2.4-0.6s0.7-0.9,0.7-1.6c0-0.6-0.2-1.1-0.7-1.5s-1.3-0.6-2.4-0.6h-3.4V597.9z"/>
				</g>
				<g>
					<path class="st3" d="M957.4,593.8l5.8,1.8c-0.4,1.6-1,3-1.8,4.1s-1.9,1.9-3.1,2.5s-2.8,0.8-4.8,0.8c-2.3,0-4.2-0.3-5.7-1
						c-1.5-0.7-2.8-1.9-3.8-3.6c-1.1-1.7-1.6-3.9-1.6-6.6c0-3.6,0.9-6.3,2.8-8.2c1.9-1.9,4.6-2.9,8-2.9c2.7,0,4.8,0.5,6.4,1.6
						s2.7,2.8,3.4,5l-5.9,1.3c-0.2-0.7-0.4-1.1-0.6-1.4c-0.4-0.5-0.8-0.9-1.4-1.2s-1.1-0.4-1.8-0.4c-1.5,0-2.7,0.6-3.5,1.8
						c-0.6,0.9-0.9,2.3-0.9,4.2c0,2.4,0.4,4,1.1,4.9c0.7,0.9,1.7,1.3,3,1.3c1.3,0,2.2-0.4,2.9-1.1S957.1,595.1,957.4,593.8z"/>
				</g>
				<g>
					<path class="st3" d="M979.6,581.1h9.9c1.9,0,3.5,0.3,4.7,0.8s2.2,1.3,3,2.3s1.3,2.1,1.7,3.4s0.5,2.7,0.5,4.2
						c0,2.3-0.3,4.1-0.8,5.3s-1.2,2.3-2.2,3.2s-1.9,1.4-3,1.7c-1.5,0.4-2.8,0.6-4,0.6h-9.9V581.1z M986.2,585.9v11.7h1.6
						c1.4,0,2.4-0.2,3-0.5s1-0.8,1.4-1.6s0.5-2,0.5-3.7c0-2.3-0.4-3.8-1.1-4.7s-2-1.3-3.7-1.3H986.2z"/>
				</g>
			</g>
			<g>
				<polygon points="895.4,648 916.5,648 916.5,626 951.9,626 951.9,648 973,648 934.2,715.2 				"/>
				<path class="st3" d="M948.6,629.3v22h18.7l-33.1,57.3l-33.1-57.3h18.7v-22H948.6 M955.2,622.6h-6.6h-28.7h-6.6v6.6v15.4h-12.1
					h-11.5l5.7,10l33.1,57.3l5.7,9.9l5.7-9.9l33.1-57.3l5.7-10h-11.5h-12.1v-15.4V622.6L955.2,622.6z"/>
			</g>
		</g>
		<g>
			<g>
				<rect x="865.3" y="735.9" class="st1" width="138.2" height="77.8"/>
				<rect x="864.9" y="819.3" class="st2" width="29.8" height="43.2"/>
				<rect x="901.3" y="819.3" class="st2" width="29.8" height="43.2"/>
				<rect x="937.7" y="819.3" class="st2" width="29.8" height="43.2"/>
				<rect x="974" y="819.3" class="st2" width="29.8" height="43.2"/>
				<g>
					<path class="st3" d="M883.6,841.1H876l-1,3.5h-6.8l8.1-21.5h7.2l8.1,21.5h-6.9L883.6,841.1z M882.2,836.5l-2.4-7.7l-2.3,7.7
						H882.2z"/>
				</g>
				<g>
					<path class="st3" d="M906.7,823.2h12.4c2.1,0,3.7,0.5,4.8,1.5s1.7,2.3,1.7,3.8c0,1.3-0.4,2.4-1.2,3.3c-0.5,0.6-1.3,1.1-2.3,1.4
						c1.5,0.4,2.7,1,3.4,1.9s1.1,2,1.1,3.4c0,1.1-0.3,2.1-0.8,3s-1.2,1.6-2.1,2.1c-0.6,0.3-1.4,0.6-2.5,0.7c-1.5,0.2-2.5,0.3-3,0.3
						h-11.5V823.2z M913.4,831.6h2.9c1,0,1.8-0.2,2.2-0.5s0.6-0.9,0.6-1.5c0-0.6-0.2-1.1-0.6-1.5s-1.1-0.5-2.1-0.5h-2.9V831.6z
						 M913.4,840.1h3.4c1.1,0,1.9-0.2,2.4-0.6s0.7-0.9,0.7-1.6c0-0.6-0.2-1.1-0.7-1.5s-1.3-0.6-2.4-0.6h-3.4V840.1z"/>
				</g>
				<g>
					<path class="st3" d="M957.4,835.9l5.8,1.8c-0.4,1.6-1,3-1.8,4.1s-1.9,1.9-3.1,2.5s-2.8,0.8-4.8,0.8c-2.3,0-4.2-0.3-5.7-1
						c-1.5-0.7-2.8-1.9-3.8-3.6c-1.1-1.7-1.6-3.9-1.6-6.6c0-3.6,0.9-6.3,2.8-8.2c1.9-1.9,4.6-2.9,8-2.9c2.7,0,4.8,0.5,6.4,1.6
						s2.7,2.8,3.4,5l-5.9,1.3c-0.2-0.7-0.4-1.1-0.6-1.4c-0.4-0.5-0.8-0.9-1.4-1.2s-1.1-0.4-1.8-0.4c-1.5,0-2.7,0.6-3.5,1.8
						c-0.6,0.9-0.9,2.3-0.9,4.2c0,2.4,0.4,4,1.1,4.9c0.7,0.9,1.7,1.3,3,1.3c1.3,0,2.2-0.4,2.9-1.1S957.1,837.3,957.4,835.9z"/>
				</g>
				<g>
					<path class="st3" d="M979.6,823.2h9.9c1.9,0,3.5,0.3,4.7,0.8s2.2,1.3,3,2.3s1.3,2.1,1.7,3.4s0.5,2.7,0.5,4.2
						c0,2.3-0.3,4.1-0.8,5.3s-1.2,2.3-2.2,3.2s-1.9,1.4-3,1.7c-1.5,0.4-2.8,0.6-4,0.6h-9.9V823.2z M986.2,828.1v11.7h1.6
						c1.4,0,2.4-0.2,3-0.5s1-0.8,1.4-1.6s0.5-2,0.5-3.7c0-2.3-0.4-3.8-1.1-4.7s-2-1.3-3.7-1.3H986.2z"/>
				</g>
			</g>
			<g>
				<polygon points="895.4,890.2 916.5,890.2 916.5,868.1 951.9,868.1 951.9,890.2 973,890.2 934.2,957.4 				"/>
				<path class="st3" d="M948.6,871.4v22h18.7l-33.1,57.3l-33.1-57.3h18.7v-22H948.6 M955.2,864.8h-6.6h-28.7h-6.6v6.6v15.4h-12.1
					h-11.5l5.7,10l33.1,57.3l5.7,9.9l5.7-9.9l33.1-57.3l5.7-10h-11.5h-12.1v-15.4V864.8L955.2,864.8z"/>
			</g>
		</g>
		<g>
			<g>
				<rect x="865.3" y="978.1" class="st1" width="138.2" height="77.8"/>
				<rect x="864.9" y="1061.4" class="st2" width="29.8" height="43.2"/>
				<rect x="901.3" y="1061.4" class="st2" width="29.8" height="43.2"/>
				<rect x="937.7" y="1061.4" class="st2" width="29.8" height="43.2"/>
				<rect x="974" y="1061.4" class="st2" width="29.8" height="43.2"/>
				<g>
					<path class="st3" d="M883.6,1083.3H876l-1,3.5h-6.8l8.1-21.5h7.2l8.1,21.5h-6.9L883.6,1083.3z M882.2,1078.7l-2.4-7.7l-2.3,7.7
						H882.2z"/>
				</g>
				<g>
					<path class="st3" d="M906.7,1065.4h12.4c2.1,0,3.7,0.5,4.8,1.5s1.7,2.3,1.7,3.8c0,1.3-0.4,2.4-1.2,3.3
						c-0.5,0.6-1.3,1.1-2.3,1.4c1.5,0.4,2.7,1,3.4,1.9s1.1,2,1.1,3.4c0,1.1-0.3,2.1-0.8,3s-1.2,1.6-2.1,2.1
						c-0.6,0.3-1.4,0.6-2.5,0.7c-1.5,0.2-2.5,0.3-3,0.3h-11.5V1065.4z M913.4,1073.8h2.9c1,0,1.8-0.2,2.2-0.5s0.6-0.9,0.6-1.5
						c0-0.6-0.2-1.1-0.6-1.5s-1.1-0.5-2.1-0.5h-2.9V1073.8z M913.4,1082.2h3.4c1.1,0,1.9-0.2,2.4-0.6s0.7-0.9,0.7-1.6
						c0-0.6-0.2-1.1-0.7-1.5s-1.3-0.6-2.4-0.6h-3.4V1082.2z"/>
				</g>
				<g>
					<path class="st3" d="M957.4,1078.1l5.8,1.8c-0.4,1.6-1,3-1.8,4.1s-1.9,1.9-3.1,2.5s-2.8,0.8-4.8,0.8c-2.3,0-4.2-0.3-5.7-1
						c-1.5-0.7-2.8-1.9-3.8-3.6c-1.1-1.7-1.6-3.9-1.6-6.6c0-3.6,0.9-6.3,2.8-8.2c1.9-1.9,4.6-2.9,8-2.9c2.7,0,4.8,0.5,6.4,1.6
						s2.7,2.8,3.4,5l-5.9,1.3c-0.2-0.7-0.4-1.1-0.6-1.4c-0.4-0.5-0.8-0.9-1.4-1.2s-1.1-0.4-1.8-0.4c-1.5,0-2.7,0.6-3.5,1.8
						c-0.6,0.9-0.9,2.3-0.9,4.2c0,2.4,0.4,4,1.1,4.9c0.7,0.9,1.7,1.3,3,1.3c1.3,0,2.2-0.4,2.9-1.1S957.1,1079.4,957.4,1078.1z"/>
				</g>
				<g>
					<path class="st3" d="M979.6,1065.4h9.9c1.9,0,3.5,0.3,4.7,0.8s2.2,1.3,3,2.3s1.3,2.1,1.7,3.4s0.5,2.7,0.5,4.2
						c0,2.3-0.3,4.1-0.8,5.3s-1.2,2.3-2.2,3.2s-1.9,1.4-3,1.7c-1.5,0.4-2.8,0.6-4,0.6h-9.9V1065.4z M986.2,1070.2v11.7h1.6
						c1.4,0,2.4-0.2,3-0.5s1-0.8,1.4-1.6s0.5-2,0.5-3.7c0-2.3-0.4-3.8-1.1-4.7s-2-1.3-3.7-1.3H986.2z"/>
				</g>
			</g>
			<g>
				<polygon points="895.4,1132.3 916.5,1132.3 916.5,1110.3 951.9,1110.3 951.9,1132.3 973,1132.3 934.2,1199.6 				"/>
				<path class="st3" d="M948.6,1113.6v22h18.7l-33.1,57.3l-33.1-57.3h18.7v-22H948.6 M955.2,1106.9h-6.6h-28.7h-6.6v6.6v15.4h-12.1
					h-11.5l5.7,10l33.1,57.3l5.7,9.9l5.7-9.9l33.1-57.3l5.7-10h-11.5h-12.1v-15.4V1106.9L955.2,1106.9z"/>
			</g>
		</g>
		<g>
			<g>
				<rect x="865.1" y="1220.3" class="st1" width="138.2" height="77.8"/>
				<rect x="864.7" y="1303.6" class="st2" width="29.8" height="43.2"/>
				<rect x="901.1" y="1303.6" class="st2" width="29.8" height="43.2"/>
				<rect x="937.5" y="1303.6" class="st2" width="29.8" height="43.2"/>
				<rect x="973.8" y="1303.6" class="st2" width="29.8" height="43.2"/>
				<g>
					<path class="st3" d="M883.3,1325.5h-7.5l-1,3.5H868l8.1-21.5h7.2l8.1,21.5h-6.9L883.3,1325.5z M882,1320.8l-2.4-7.7l-2.3,7.7
						H882z"/>
				</g>
				<g>
					<path class="st3" d="M906.5,1307.5H919c2.1,0,3.7,0.5,4.8,1.5s1.7,2.3,1.7,3.8c0,1.3-0.4,2.4-1.2,3.3c-0.5,0.6-1.3,1.1-2.3,1.4
						c1.5,0.4,2.7,1,3.4,1.9s1.1,2,1.1,3.4c0,1.1-0.3,2.1-0.8,3s-1.2,1.6-2.1,2.1c-0.6,0.3-1.4,0.6-2.5,0.7c-1.5,0.2-2.5,0.3-3,0.3
						h-11.5V1307.5z M913.2,1316h2.9c1,0,1.8-0.2,2.2-0.5s0.6-0.9,0.6-1.5c0-0.6-0.2-1.1-0.6-1.5s-1.1-0.5-2.1-0.5h-2.9V1316z
						 M913.2,1324.4h3.4c1.1,0,1.9-0.2,2.4-0.6s0.7-0.9,0.7-1.6c0-0.6-0.2-1.1-0.7-1.5s-1.3-0.6-2.4-0.6h-3.4V1324.4z"/>
				</g>
				<g>
					<path class="st3" d="M957.2,1320.2l5.8,1.8c-0.4,1.6-1,3-1.8,4.1s-1.9,1.9-3.1,2.5s-2.8,0.8-4.8,0.8c-2.3,0-4.2-0.3-5.7-1
						c-1.5-0.7-2.8-1.9-3.8-3.6c-1.1-1.7-1.6-3.9-1.6-6.6c0-3.6,0.9-6.3,2.8-8.2c1.9-1.9,4.6-2.9,8-2.9c2.7,0,4.8,0.5,6.4,1.6
						s2.7,2.8,3.4,5l-5.9,1.3c-0.2-0.7-0.4-1.1-0.6-1.4c-0.4-0.5-0.8-0.9-1.4-1.2s-1.1-0.4-1.8-0.4c-1.5,0-2.7,0.6-3.5,1.8
						c-0.6,0.9-0.9,2.3-0.9,4.2c0,2.4,0.4,4,1.1,4.9c0.7,0.9,1.7,1.3,3,1.3c1.3,0,2.2-0.4,2.9-1.1S956.9,1321.6,957.2,1320.2z"/>
				</g>
				<g>
					<path class="st3" d="M979.3,1307.5h9.9c1.9,0,3.5,0.3,4.7,0.8s2.2,1.3,3,2.3s1.3,2.1,1.7,3.4s0.5,2.7,0.5,4.2
						c0,2.3-0.3,4.1-0.8,5.3s-1.2,2.3-2.2,3.2s-1.9,1.4-3,1.7c-1.5,0.4-2.8,0.6-4,0.6h-9.9V1307.5z M986,1312.4v11.7h1.6
						c1.4,0,2.4-0.2,3-0.5s1-0.8,1.4-1.6s0.5-2,0.5-3.7c0-2.3-0.4-3.8-1.1-4.7s-2-1.3-3.7-1.3H986z"/>
				</g>
			</g>
			<g>
				<polygon points="895.2,1374.5 916.3,1374.5 916.3,1352.4 951.7,1352.4 951.7,1374.5 972.8,1374.5 934,1441.7 				"/>
				<path class="st3" d="M948.4,1355.7v22h18.7l-33.1,57.3l-33.1-57.3h18.7v-22H948.4 M955,1349.1h-6.6h-28.7H913v6.6v15.4h-12.1
					h-11.5l5.7,10l33.1,57.3l5.7,9.9l5.7-9.9l33.1-57.3l5.7-10h-11.5H955v-15.4V1349.1L955,1349.1z"/>
			</g>
		</g>
		<rect x="865.1" y="1462.4" class="st1" width="138.2" height="77.8"/>
		<g>
			<rect x="919.3" y="1545.2" class="st2" width="29.8" height="43.2"/>
			<g>
				<path class="st3" d="M920.2,1560.6h7.6v2.1H923v1.6h4.4v2H923v2h4.9v2.3h-7.7V1560.6z"/>
				<path class="st3" d="M929.5,1560.6h2.6l3.4,5.5v-5.5h2.7v10h-2.7l-3.4-5.5v5.5h-2.7V1560.6z"/>
				<path class="st3" d="M940.1,1560.6h4.2c0.8,0,1.5,0.1,2,0.4c0.5,0.2,0.9,0.6,1.3,1.1c0.3,0.5,0.6,1,0.7,1.6s0.2,1.3,0.2,1.9
					c0,1.1-0.1,1.9-0.3,2.5s-0.5,1.1-0.9,1.5c-0.4,0.4-0.8,0.7-1.3,0.8c-0.6,0.2-1.2,0.3-1.7,0.3h-4.2V1560.6z M942.9,1562.9v5.4
					h0.7c0.6,0,1-0.1,1.3-0.2s0.4-0.4,0.6-0.7c0.1-0.4,0.2-0.9,0.2-1.7c0-1.1-0.2-1.8-0.5-2.2c-0.3-0.4-0.8-0.6-1.6-0.6H942.9z"/>
			</g>
		</g>
	</g>
	<g>
		<g>
			<polygon points="824.1,38.5 824.1,19 816,19 816,11.7 841.2,11.7 841.2,19 833.1,19 833.1,38.5 			"/>
			<path class="st3" d="M840.7,12.2v6.4h-8.1V38h-8V18.5h-8.1v-6.4H840.7 M841.7,11.2h-1h-24.2h-1v1v6.4v1h1h7.1V38v1h1h8h1v-1V19.5
				h7.1h1v-1v-6.4V11.2L841.7,11.2z"/>
		</g>
		<g>
			<rect x="844.1" y="11.7" width="9" height="26.8"/>
			<path class="st3" d="M852.6,12.2V38h-8V12.2H852.6 M853.6,11.2h-1h-8h-1v1V38v1h1h8h1v-1V12.2V11.2L853.6,11.2z"/>
		</g>
		<g>
			<polygon points="880.2,38.5 880.2,22.3 876,38.5 869.4,38.5 865.2,22.3 865.2,38.5 857.7,38.5 857.7,11.7 869.1,11.7 872.7,25.9 
				876.3,11.7 887.7,11.7 887.7,38.5 			"/>
			<path class="st3" d="M887.2,12.2V38h-6.5V18.3l-5,19.7h-5.9l-5-19.7V38h-6.5V12.2h10.5l4,15.7l4-15.7H887.2 M888.2,11.2h-1h-10.5
				H876l-0.2,0.8l-3,11.9l-3.1-11.9l-0.2-0.8h-0.8h-10.5h-1v1V38v1h1h6.5h1v-1V26.3l3,11.9L869,39h0.8h5.9h0.8l0.2-0.8l3.1-12V38v1
				h1h6.5h1v-1V12.2V11.2L888.2,11.2z"/>
		</g>
		<g>
			<polygon points="891.8,38.5 891.8,11.7 914.1,11.7 914.1,18.2 900.7,18.2 900.7,21.3 913.1,21.3 913.1,27.5 900.7,27.5 
				900.7,31.6 914.5,31.6 914.5,38.5 			"/>
			<path class="st3" d="M913.6,12.2v5.5h-13.4v4.1h12.4V27h-12.4v5.1H914V38h-21.7V12.2H913.6 M914.6,11.2h-1h-21.3h-1v1V38v1h1H914
				h1v-1v-5.8v-1h-1h-12.7V28h11.4h1v-1v-5.3v-1h-1h-11.4v-2.1h12.4h1v-1v-5.5V11.2L914.6,11.2z"/>
		</g>
		<g>
			<polygon points="917.8,38.5 917.8,11.7 926.7,11.7 926.7,31.1 939.2,31.1 939.2,38.5 			"/>
			<path class="st3" d="M926.2,12.2v19.4h12.4V38h-20.4V12.2H926.2 M927.2,11.2h-1h-8h-1v1V38v1h1h20.4h1v-1v-6.3v-1h-1h-11.4V12.2
				V11.2L927.2,11.2z"/>
		</g>
		<g>
			<rect x="942.1" y="11.7" width="9" height="26.8"/>
			<path class="st3" d="M950.6,12.2V38h-8V12.2H950.6 M951.6,11.2h-1h-8h-1v1V38v1h1h8h1v-1V12.2V11.2L951.6,11.2z"/>
		</g>
		<g>
			<polygon points="973.2,38.5 964.3,25.4 964.3,38.5 955.9,38.5 955.9,11.7 964.1,11.7 973,24.8 973,11.7 981.5,11.7 981.5,38.5 
							"/>
			<path class="st3" d="M981,12.2V38h-7.5l-9.7-14.1V38h-7.5V12.2h7.4l9.7,14.3V12.2H981 M982,11.2h-1h-7.5h-1v1v11l-7.9-11.6
				l-0.3-0.4h-0.5h-7.4h-1v1V38v1h1h7.5h1v-1V27l7.8,11.5L973,39h0.5h7.5h1v-1V12.2V11.2L982,11.2z"/>
		</g>
		<g>
			<polygon points="985.8,38.5 985.8,11.7 1008.1,11.7 1008.1,18.2 994.8,18.2 994.8,21.3 1007.1,21.3 1007.1,27.5 994.8,27.5 
				994.8,31.6 1008.5,31.6 1008.5,38.5 			"/>
			<path class="st3" d="M1007.6,12.2v5.5h-13.4v4.1h12.4V27h-12.4v5.1h13.7V38h-21.7V12.2H1007.6 M1008.6,11.2h-1h-21.3h-1v1V38v1h1
				h21.7h1v-1v-5.8v-1h-1h-12.7V28h11.4h1v-1v-5.3v-1h-1h-11.4v-2.1h12.4h1v-1v-5.5V11.2L1008.6,11.2z"/>
		</g>
		<g>
			<path d="M1023.9,38.5V11.7h12.3c2.4,0,4.4,0.3,5.9,1c1.5,0.7,2.8,1.6,3.7,2.9c1,1.2,1.7,2.7,2.1,4.3c0.4,1.6,0.7,3.3,0.7,5.1
				c0,2.8-0.3,5-1,6.6c-0.7,1.6-1.6,2.9-2.7,4c-1.2,1.1-2.4,1.8-3.8,2.2c-1.8,0.5-3.4,0.7-4.9,0.7H1023.9z M1034.3,31.6
				c1.6,0,2.7-0.2,3.3-0.5c0.6-0.3,1.1-0.9,1.4-1.7c0.4-0.9,0.6-2.3,0.6-4.3c0-2.6-0.4-4.4-1.2-5.3c-0.8-0.9-2.2-1.3-4.1-1.3h-1.5
				v13.1H1034.3z"/>
			<path class="st3" d="M1036.2,12.2c2.3,0,4.2,0.3,5.7,0.9c1.4,0.6,2.6,1.5,3.6,2.7s1.6,2.6,2,4.1c0.4,1.6,0.6,3.2,0.6,5
				c0,2.8-0.3,4.9-0.9,6.4c-0.6,1.5-1.5,2.8-2.6,3.8s-2.3,1.7-3.6,2c-1.7,0.5-3.3,0.7-4.7,0.7h-11.8V12.2H1036.2 M1032.4,32.1h2
				c1.7,0,2.8-0.2,3.6-0.6s1.3-1,1.7-1.9c0.4-0.9,0.6-2.4,0.6-4.5c0-2.7-0.4-4.6-1.3-5.6s-2.4-1.5-4.4-1.5h-2V32.1 M1036.2,11.2
				h-11.8h-1v1V38v1h1h11.8c1.5,0,3.2-0.2,5-0.7c1.4-0.4,2.8-1.1,4-2.3c1.2-1.1,2.2-2.5,2.9-4.2c0.7-1.7,1-3.9,1-6.8
				c0-1.8-0.2-3.6-0.7-5.3c-0.5-1.7-1.2-3.2-2.2-4.5c-1-1.3-2.4-2.3-3.9-3C1040.7,11.5,1038.7,11.2,1036.2,11.2L1036.2,11.2z
				 M1033.4,19h1c1.8,0,3,0.4,3.7,1.2c0.5,0.6,1.1,1.9,1.1,4.9c0,2.4-0.3,3.5-0.5,4.1c-0.3,0.7-0.7,1.2-1.2,1.4
				c-0.4,0.2-1.2,0.4-3.1,0.4h-1V19L1033.4,19z"/>
		</g>
	</g>
</g>
<g>
	<g>
		<path class="st3" d="M112.3,305.3H96l-2.3,7.7H79l17.5-46.5h15.7l17.5,46.5h-15.1L112.3,305.3z M109.3,295.2l-5.1-16.7l-5.1,16.7
			H109.3z"/>
		<path class="st3" d="M161.4,265.6v47.3h-13.1v-31c-2.1,1.6-4.2,2.9-6.1,3.9c-2,1-4.5,1.9-7.4,2.9v-10.6c4.4-1.4,7.8-3.1,10.3-5.1
			c2.4-2,4.3-4.4,5.7-7.4H161.4z"/>
	</g>
	<g>
		<path class="st3" d="M112.3,547.4H96l-2.3,7.7H79l17.5-46.5h15.7l17.5,46.5h-15.1L112.3,547.4z M109.3,537.3l-5.1-16.7l-5.1,16.7
			H109.3z"/>
		<path class="st3" d="M170,555.1h-38.8c0.4-3.8,1.8-7.4,4-10.8c2.3-3.4,6.5-7.4,12.7-11.9c3.8-2.8,6.2-5,7.3-6.4
			c1.1-1.5,1.6-2.8,1.6-4.2c0-1.4-0.5-2.6-1.6-3.6c-1-1-2.4-1.5-4-1.5c-1.7,0-3,0.5-4,1.6c-1,1-1.8,2.9-2.1,5.5l-12.9-1
			c0.5-3.6,1.4-6.5,2.8-8.5c1.4-2,3.3-3.6,5.7-4.7c2.5-1.1,5.9-1.6,10.2-1.6c4.5,0,8.1,0.5,10.6,1.6c2.5,1,4.5,2.6,6,4.8
			c1.4,2.1,2.2,4.6,2.2,7.2c0,2.8-0.8,5.5-2.5,8.1c-1.7,2.6-4.7,5.4-9.1,8.5c-2.6,1.8-4.3,3.1-5.2,3.8c-0.9,0.7-1.9,1.7-3.1,2.8H170
			V555.1z"/>
	</g>
	<g>
		<path class="st3" d="M112.3,789.6H96l-2.3,7.7H79l17.5-46.5h15.7l17.5,46.5h-15.1L112.3,789.6z M109.3,779.5l-5.1-16.7l-5.1,16.7
			H109.3z"/>
		<path class="st3" d="M144.7,764.2l-12.2-2.2c1-3.9,3-6.9,5.9-8.9c2.9-2.1,7-3.1,12.3-3.1c6.1,0,10.5,1.1,13.2,3.4
			c2.7,2.3,4.1,5.1,4.1,8.5c0,2-0.6,3.8-1.7,5.5c-1.1,1.6-2.8,3.1-5,4.3c1.8,0.4,3.2,1,4.1,1.6c1.5,1,2.7,2.2,3.6,3.8
			c0.9,1.6,1.3,3.4,1.3,5.6c0,2.7-0.7,5.3-2.1,7.8c-1.4,2.5-3.5,4.4-6.1,5.7c-2.7,1.3-6.2,2-10.5,2c-4.2,0-7.6-0.5-10-1.5
			c-2.4-1-4.5-2.4-6-4.4c-1.6-1.9-2.8-4.3-3.6-7.2l12.9-1.7c0.5,2.6,1.3,4.4,2.4,5.4c1.1,1,2.4,1.5,4.1,1.5c1.7,0,3.2-0.6,4.3-1.9
			s1.7-3,1.7-5.1c0-2.2-0.6-3.8-1.7-5c-1.1-1.2-2.6-1.8-4.5-1.8c-1,0-2.4,0.3-4.2,0.8l0.7-9.2c0.7,0.1,1.3,0.2,1.7,0.2
			c1.7,0,3.1-0.5,4.2-1.6c1.1-1.1,1.7-2.4,1.7-3.8c0-1.4-0.4-2.5-1.3-3.4c-0.8-0.8-2-1.3-3.5-1.3c-1.5,0-2.8,0.5-3.7,1.4
			C145.7,760.3,145,761.9,144.7,764.2z"/>
	</g>
	<g>
		<path class="st3" d="M112.3,1031.7H96l-2.3,7.7H79l17.5-46.5h15.7l17.5,46.5h-15.1L112.3,1031.7z M109.3,1021.7l-5.1-16.7
			l-5.1,16.7H109.3z"/>
		<path class="st3" d="M154.4,1030.7h-23.5v-10.6l23.5-28h11.3v28.6h5.8v10h-5.8v8.7h-11.3V1030.7z M154.4,1020.7V1006l-12.4,14.6
			H154.4z"/>
	</g>
	<g>
		<path class="st3" d="M112.3,1271.9H96l-2.3,7.7H79l17.5-46.5h15.7l17.5,46.5h-15.1L112.3,1271.9z M109.3,1261.8l-5.1-16.7
			l-5.1,16.7H109.3z"/>
		<path class="st3" d="M137.4,1233h30.7v10.3h-20.8l-1.1,7c1.4-0.7,2.9-1.2,4.3-1.5c1.4-0.3,2.8-0.5,4.2-0.5c4.7,0,8.4,1.4,11.3,4.2
			c2.9,2.8,4.3,6.4,4.3,10.6c0,3-0.7,5.9-2.2,8.7c-1.5,2.8-3.6,4.9-6.3,6.3c-2.7,1.5-6.2,2.2-10.5,2.2c-3.1,0-5.7-0.3-7.9-0.9
			c-2.2-0.6-4.1-1.4-5.6-2.6c-1.5-1.2-2.8-2.5-3.7-3.9s-1.7-3.3-2.4-5.5l13.1-1.4c0.3,2.1,1.1,3.7,2.2,4.8c1.2,1.1,2.5,1.6,4.2,1.6
			c1.8,0,3.3-0.7,4.5-2c1.2-1.4,1.8-3.4,1.8-6.1c0-2.8-0.6-4.8-1.8-6.1c-1.2-1.3-2.8-1.9-4.7-1.9c-1.2,0-2.5,0.3-3.6,0.9
			c-0.9,0.4-1.8,1.2-2.9,2.4l-11-1.6L137.4,1233z"/>
	</g>
	<g>
		<path class="st3" d="M112.3,1512H96l-2.3,7.7H79l17.5-46.5h15.7l17.5,46.5h-15.1L112.3,1512z M109.3,1501.9l-5.1-16.7l-5.1,16.7
			H109.3z"/>
		<path class="st3" d="M169.6,1483.6l-12.9,1.6c-0.3-1.8-0.9-3.1-1.7-3.8c-0.8-0.7-1.8-1.1-2.9-1.1c-2.1,0-3.7,1.1-4.9,3.2
			c-0.8,1.5-1.5,4.8-1.9,9.8c1.5-1.6,3.1-2.7,4.8-3.5c1.6-0.8,3.5-1.1,5.6-1.1c4.1,0,7.7,1.5,10.5,4.4c2.9,3,4.3,6.7,4.3,11.3
			c0,3.1-0.7,5.9-2.2,8.4c-1.4,2.5-3.5,4.5-6,5.8c-2.6,1.3-5.8,2-9.7,2c-4.7,0-8.4-0.8-11.2-2.4c-2.8-1.6-5.1-4.1-6.7-7.6
			c-1.7-3.5-2.5-8.1-2.5-13.8c0-8.4,1.8-14.6,5.3-18.5c3.5-3.9,8.4-5.9,14.7-5.9c3.7,0,6.6,0.4,8.8,1.3c2.1,0.9,3.9,2.1,5.3,3.8
			C167.7,1479,168.8,1481.1,169.6,1483.6z M145.8,1504.3c0,2.5,0.6,4.5,1.9,5.9c1.3,1.4,2.8,2.1,4.7,2.1c1.7,0,3.1-0.6,4.3-1.9
			c1.1-1.3,1.7-3.2,1.7-5.8c0-2.6-0.6-4.6-1.8-6c-1.2-1.4-2.7-2.1-4.4-2.1c-1.8,0-3.3,0.7-4.5,2
			C146.4,1500,145.8,1501.9,145.8,1504.3z"/>
	</g>
</g>
<g>
	<g>
		<path class="st3" d="M355.7,266.4h26.9c4.5,0,7.9,1.1,10.3,3.3c2.4,2.2,3.6,5,3.6,8.3c0,2.8-0.9,5.1-2.6,7.1
			c-1.1,1.3-2.8,2.3-5,3.1c3.3,0.8,5.8,2.2,7.4,4.1c1.6,2,2.4,4.4,2.4,7.4c0,2.4-0.6,4.6-1.7,6.5c-1.1,1.9-2.7,3.4-4.6,4.6
			c-1.2,0.7-3,1.2-5.5,1.5c-3.2,0.4-5.4,0.6-6.4,0.6h-24.8V266.4z M370.2,284.7h6.3c2.2,0,3.8-0.4,4.7-1.2c0.9-0.8,1.3-1.9,1.3-3.3
			c0-1.4-0.4-2.4-1.3-3.2s-2.4-1.1-4.6-1.1h-6.3V284.7z M370.2,302.9h7.3c2.5,0,4.2-0.4,5.2-1.3s1.5-2.1,1.5-3.5
			c0-1.4-0.5-2.5-1.5-3.3s-2.8-1.3-5.3-1.3h-7.3V302.9z"/>
		<path class="st3" d="M433.4,265.6v47.3h-13.1v-31c-2.1,1.6-4.2,2.9-6.1,3.9c-2,1-4.5,1.9-7.4,2.9v-10.6c4.4-1.4,7.8-3.1,10.3-5.1
			c2.4-2,4.3-4.4,5.7-7.4H433.4z"/>
	</g>
	<g>
		<path class="st3" d="M355.7,508.6h26.9c4.5,0,7.9,1.1,10.3,3.3c2.4,2.2,3.6,5,3.6,8.3c0,2.8-0.9,5.1-2.6,7.1
			c-1.1,1.3-2.8,2.3-5,3.1c3.3,0.8,5.8,2.2,7.4,4.1c1.6,2,2.4,4.4,2.4,7.4c0,2.4-0.6,4.6-1.7,6.5c-1.1,1.9-2.7,3.4-4.6,4.6
			c-1.2,0.7-3,1.2-5.5,1.5c-3.2,0.4-5.4,0.6-6.4,0.6h-24.8V508.6z M370.2,526.8h6.3c2.2,0,3.8-0.4,4.7-1.2c0.9-0.8,1.3-1.9,1.3-3.3
			c0-1.4-0.4-2.4-1.3-3.2s-2.4-1.1-4.6-1.1h-6.3V526.8z M370.2,545.1h7.3c2.5,0,4.2-0.4,5.2-1.3s1.5-2.1,1.5-3.5
			c0-1.4-0.5-2.5-1.5-3.3s-2.8-1.3-5.3-1.3h-7.3V545.1z"/>
		<path class="st3" d="M442,555.1h-38.8c0.4-3.8,1.8-7.4,4-10.8c2.3-3.4,6.5-7.4,12.7-11.9c3.8-2.8,6.2-5,7.3-6.4
			c1.1-1.5,1.6-2.8,1.6-4.2c0-1.4-0.5-2.6-1.6-3.6s-2.4-1.5-4-1.5c-1.7,0-3,0.5-4,1.6c-1,1-1.8,2.9-2.1,5.5l-12.9-1
			c0.5-3.6,1.4-6.5,2.8-8.5c1.4-2,3.3-3.6,5.7-4.7c2.5-1.1,5.9-1.6,10.2-1.6c4.5,0,8.1,0.5,10.6,1.6c2.5,1,4.5,2.6,6,4.8
			c1.4,2.1,2.2,4.6,2.2,7.2c0,2.8-0.8,5.5-2.5,8.1c-1.7,2.6-4.7,5.4-9.1,8.5c-2.6,1.8-4.3,3.1-5.2,3.8c-0.9,0.7-1.9,1.7-3.1,2.8H442
			V555.1z"/>
	</g>
	<g>
		<path class="st3" d="M355.7,750.7h26.9c4.5,0,7.9,1.1,10.3,3.3c2.4,2.2,3.6,5,3.6,8.3c0,2.8-0.9,5.1-2.6,7.1
			c-1.1,1.3-2.8,2.3-5,3.1c3.3,0.8,5.8,2.2,7.4,4.1c1.6,2,2.4,4.4,2.4,7.4c0,2.4-0.6,4.6-1.7,6.5c-1.1,1.9-2.7,3.4-4.6,4.6
			c-1.2,0.7-3,1.2-5.5,1.5c-3.2,0.4-5.4,0.6-6.4,0.6h-24.8V750.7z M370.2,769h6.3c2.2,0,3.8-0.4,4.7-1.2c0.9-0.8,1.3-1.9,1.3-3.3
			c0-1.4-0.4-2.4-1.3-3.2s-2.4-1.1-4.6-1.1h-6.3V769z M370.2,787.2h7.3c2.5,0,4.2-0.4,5.2-1.3s1.5-2.1,1.5-3.5
			c0-1.4-0.5-2.5-1.5-3.3s-2.8-1.3-5.3-1.3h-7.3V787.2z"/>
		<path class="st3" d="M416.7,764.2l-12.2-2.2c1-3.9,3-6.9,5.9-8.9c2.9-2.1,7-3.1,12.3-3.1c6.1,0,10.5,1.1,13.2,3.4
			c2.7,2.3,4.1,5.1,4.1,8.5c0,2-0.5,3.8-1.7,5.5c-1.1,1.6-2.8,3.1-5,4.3c1.8,0.4,3.2,1,4.1,1.6c1.5,1,2.7,2.2,3.6,3.8
			c0.9,1.6,1.3,3.4,1.3,5.6c0,2.7-0.7,5.3-2.1,7.8c-1.4,2.5-3.5,4.4-6.1,5.7c-2.7,1.3-6.2,2-10.5,2c-4.2,0-7.6-0.5-10-1.5
			c-2.4-1-4.5-2.4-6-4.4c-1.6-1.9-2.8-4.3-3.6-7.2l12.9-1.7c0.5,2.6,1.3,4.4,2.4,5.4c1.1,1,2.4,1.5,4.1,1.5c1.7,0,3.2-0.6,4.3-1.9
			c1.2-1.3,1.7-3,1.7-5.1c0-2.2-0.6-3.8-1.7-5c-1.1-1.2-2.6-1.8-4.5-1.8c-1,0-2.4,0.3-4.2,0.8l0.7-9.2c0.7,0.1,1.3,0.2,1.7,0.2
			c1.7,0,3.1-0.5,4.2-1.6c1.1-1.1,1.7-2.4,1.7-3.8c0-1.4-0.4-2.5-1.3-3.4c-0.8-0.8-2-1.3-3.5-1.3c-1.5,0-2.8,0.5-3.7,1.4
			C417.7,760.3,417,761.9,416.7,764.2z"/>
	</g>
	<g>
		<path class="st3" d="M355.7,992.9h26.9c4.5,0,7.9,1.1,10.3,3.3c2.4,2.2,3.6,5,3.6,8.3c0,2.8-0.9,5.1-2.6,7.1
			c-1.1,1.3-2.8,2.3-5,3.1c3.3,0.8,5.8,2.2,7.4,4.1c1.6,2,2.4,4.4,2.4,7.4c0,2.4-0.6,4.6-1.7,6.5c-1.1,1.9-2.7,3.4-4.6,4.6
			c-1.2,0.7-3,1.2-5.5,1.5c-3.2,0.4-5.4,0.6-6.4,0.6h-24.8V992.9z M370.2,1011.1h6.3c2.2,0,3.8-0.4,4.7-1.2c0.9-0.8,1.3-1.9,1.3-3.3
			c0-1.4-0.4-2.4-1.3-3.2s-2.4-1.1-4.6-1.1h-6.3V1011.1z M370.2,1029.4h7.3c2.5,0,4.2-0.4,5.2-1.3s1.5-2.1,1.5-3.5
			c0-1.4-0.5-2.5-1.5-3.3s-2.8-1.3-5.3-1.3h-7.3V1029.4z"/>
		<path class="st3" d="M426.4,1030.7h-23.5v-10.6l23.5-28h11.3v28.6h5.8v10h-5.8v8.7h-11.3V1030.7z M426.4,1020.7V1006l-12.4,14.6
			H426.4z"/>
	</g>
	<g>
		<path class="st3" d="M355.7,1233h26.9c4.5,0,7.9,1.1,10.3,3.3c2.4,2.2,3.6,5,3.6,8.3c0,2.8-0.9,5.1-2.6,7.1
			c-1.1,1.3-2.8,2.3-5,3.1c3.3,0.8,5.8,2.2,7.4,4.1c1.6,2,2.4,4.4,2.4,7.4c0,2.4-0.6,4.6-1.7,6.5c-1.1,1.9-2.7,3.4-4.6,4.6
			c-1.2,0.7-3,1.2-5.5,1.5c-3.2,0.4-5.4,0.6-6.4,0.6h-24.8V1233z M370.2,1251.3h6.3c2.2,0,3.8-0.4,4.7-1.2c0.9-0.8,1.3-1.9,1.3-3.3
			c0-1.4-0.4-2.4-1.3-3.2s-2.4-1.1-4.6-1.1h-6.3V1251.3z M370.2,1269.5h7.3c2.5,0,4.2-0.4,5.2-1.3s1.5-2.1,1.5-3.5
			c0-1.4-0.5-2.5-1.5-3.3s-2.8-1.3-5.3-1.3h-7.3V1269.5z"/>
		<path class="st3" d="M409.4,1233h30.7v10.3h-20.8l-1.1,7c1.4-0.7,2.9-1.2,4.3-1.5c1.4-0.3,2.8-0.5,4.2-0.5c4.7,0,8.4,1.4,11.3,4.2
			c2.9,2.8,4.3,6.4,4.3,10.6c0,3-0.7,5.9-2.2,8.7c-1.5,2.8-3.6,4.9-6.3,6.3s-6.2,2.2-10.5,2.2c-3.1,0-5.7-0.3-7.9-0.9
			c-2.2-0.6-4.1-1.4-5.6-2.6s-2.8-2.5-3.7-3.9c-1-1.5-1.7-3.3-2.4-5.5l13.1-1.4c0.3,2.1,1.1,3.7,2.2,4.8c1.2,1.1,2.5,1.6,4.2,1.6
			c1.8,0,3.3-0.7,4.5-2c1.2-1.4,1.8-3.4,1.8-6.1c0-2.8-0.6-4.8-1.8-6.1c-1.2-1.3-2.8-1.9-4.7-1.9c-1.2,0-2.5,0.3-3.6,0.9
			c-0.9,0.4-1.8,1.2-2.9,2.4l-11-1.6L409.4,1233z"/>
	</g>
	<g>
		<path class="st3" d="M355.7,1473.1h26.9c4.5,0,7.9,1.1,10.3,3.3c2.4,2.2,3.6,5,3.6,8.3c0,2.8-0.9,5.1-2.6,7.1
			c-1.1,1.3-2.8,2.3-5,3.1c3.3,0.8,5.8,2.2,7.4,4.1c1.6,2,2.4,4.4,2.4,7.4c0,2.4-0.6,4.6-1.7,6.5c-1.1,1.9-2.7,3.4-4.6,4.6
			c-1.2,0.7-3,1.2-5.5,1.5c-3.2,0.4-5.4,0.6-6.4,0.6h-24.8V1473.1z M370.2,1491.4h6.3c2.2,0,3.8-0.4,4.7-1.2
			c0.9-0.8,1.3-1.9,1.3-3.3c0-1.4-0.4-2.4-1.3-3.2s-2.4-1.1-4.6-1.1h-6.3V1491.4z M370.2,1509.7h7.3c2.5,0,4.2-0.4,5.2-1.3
			s1.5-2.1,1.5-3.5c0-1.4-0.5-2.5-1.5-3.3s-2.8-1.3-5.3-1.3h-7.3V1509.7z"/>
		<path class="st3" d="M441.6,1483.6l-12.9,1.6c-0.3-1.8-0.9-3.1-1.7-3.8c-0.8-0.7-1.8-1.1-2.9-1.1c-2.1,0-3.7,1.1-4.9,3.2
			c-0.8,1.5-1.5,4.8-1.9,9.8c1.5-1.6,3.1-2.7,4.8-3.5c1.6-0.8,3.5-1.1,5.6-1.1c4.1,0,7.7,1.5,10.5,4.4c2.9,3,4.3,6.7,4.3,11.3
			c0,3.1-0.7,5.9-2.2,8.4c-1.5,2.5-3.5,4.5-6,5.8c-2.6,1.3-5.8,2-9.7,2c-4.7,0-8.4-0.8-11.2-2.4c-2.8-1.6-5.1-4.1-6.7-7.6
			c-1.7-3.5-2.5-8.1-2.5-13.8c0-8.4,1.8-14.6,5.3-18.5c3.5-3.9,8.4-5.9,14.7-5.9c3.7,0,6.6,0.4,8.8,1.3c2.1,0.9,3.9,2.1,5.3,3.8
			C439.7,1479,440.8,1481.1,441.6,1483.6z M417.8,1504.3c0,2.5,0.6,4.5,1.9,5.9c1.3,1.4,2.8,2.1,4.7,2.1c1.7,0,3.1-0.6,4.3-1.9
			c1.1-1.3,1.7-3.2,1.7-5.8c0-2.6-0.6-4.6-1.8-6c-1.2-1.4-2.7-2.1-4.4-2.1c-1.8,0-3.3,0.7-4.5,2
			C418.4,1500,417.8,1501.9,417.8,1504.3z"/>
	</g>
</g>
<g>
	<g>
		<path class="st3" d="M651.2,293.9l12.6,3.8c-0.8,3.5-2.2,6.5-4,8.9c-1.8,2.4-4.1,4.2-6.8,5.4c-2.7,1.2-6.1,1.8-10.3,1.8
			c-5.1,0-9.2-0.7-12.4-2.2c-3.2-1.5-6-4.1-8.3-7.8c-2.3-3.7-3.5-8.4-3.5-14.2c0-7.7,2-13.6,6.1-17.7c4.1-4.1,9.9-6.2,17.4-6.2
			c5.9,0,10.5,1.2,13.8,3.6c3.4,2.4,5.8,6,7.5,10.9l-12.7,2.8c-0.4-1.4-0.9-2.5-1.4-3.1c-0.8-1.1-1.8-1.9-3-2.5
			c-1.2-0.6-2.5-0.9-3.9-0.9c-3.3,0-5.8,1.3-7.5,3.9c-1.3,1.9-2,5-2,9.2c0,5.2,0.8,8.7,2.3,10.6s3.8,2.9,6.6,2.9
			c2.8,0,4.8-0.8,6.2-2.3C649.6,299.1,650.6,296.8,651.2,293.9z"/>
		<path class="st3" d="M698,265.6v47.3h-13.1v-31c-2.1,1.6-4.2,2.9-6.1,3.9c-2,1-4.5,1.9-7.4,2.9v-10.6c4.4-1.4,7.8-3.1,10.3-5.1
			c2.4-2,4.3-4.4,5.7-7.4H698z"/>
	</g>
	<g>
		<path class="st3" d="M651.2,536l12.6,3.8c-0.8,3.5-2.2,6.5-4,8.9c-1.8,2.4-4.1,4.2-6.8,5.4c-2.7,1.2-6.1,1.8-10.3,1.8
			c-5.1,0-9.2-0.7-12.4-2.2c-3.2-1.5-6-4.1-8.3-7.8c-2.3-3.7-3.5-8.4-3.5-14.2c0-7.7,2-13.6,6.1-17.7c4.1-4.1,9.9-6.2,17.4-6.2
			c5.9,0,10.5,1.2,13.8,3.6c3.4,2.4,5.8,6,7.5,10.9l-12.7,2.8c-0.4-1.4-0.9-2.5-1.4-3.1c-0.8-1.1-1.8-1.9-3-2.5
			c-1.2-0.6-2.5-0.9-3.9-0.9c-3.3,0-5.8,1.3-7.5,3.9c-1.3,1.9-2,5-2,9.2c0,5.2,0.8,8.7,2.3,10.6s3.8,2.9,6.6,2.9
			c2.8,0,4.8-0.8,6.2-2.3C649.6,541.2,650.6,539,651.2,536z"/>
		<path class="st3" d="M706.5,555.1h-38.8c0.4-3.8,1.8-7.4,4-10.8c2.3-3.4,6.5-7.4,12.7-11.9c3.8-2.8,6.2-5,7.3-6.4
			c1.1-1.5,1.6-2.8,1.6-4.2c0-1.4-0.5-2.6-1.6-3.6c-1-1-2.4-1.5-4-1.5c-1.7,0-3,0.5-4,1.6c-1,1-1.8,2.9-2.1,5.5l-12.9-1
			c0.5-3.6,1.4-6.5,2.8-8.5c1.4-2,3.3-3.6,5.7-4.7c2.5-1.1,5.9-1.6,10.2-1.6c4.5,0,8.1,0.5,10.6,1.6c2.5,1,4.5,2.6,6,4.8
			c1.4,2.1,2.2,4.6,2.2,7.2c0,2.8-0.8,5.5-2.5,8.1c-1.7,2.6-4.7,5.4-9.1,8.5c-2.6,1.8-4.3,3.1-5.2,3.8c-0.9,0.7-1.9,1.7-3.1,2.8
			h20.2V555.1z"/>
	</g>
	<g>
		<path class="st3" d="M651.2,778.2l12.6,3.8c-0.8,3.5-2.2,6.5-4,8.9c-1.8,2.4-4.1,4.2-6.8,5.4c-2.7,1.2-6.1,1.8-10.3,1.8
			c-5.1,0-9.2-0.7-12.4-2.2c-3.2-1.5-6-4.1-8.3-7.8c-2.3-3.7-3.5-8.4-3.5-14.2c0-7.7,2-13.6,6.1-17.7c4.1-4.1,9.9-6.2,17.4-6.2
			c5.9,0,10.5,1.2,13.8,3.6c3.4,2.4,5.8,6,7.5,10.9l-12.7,2.8c-0.4-1.4-0.9-2.5-1.4-3.1c-0.8-1.1-1.8-1.9-3-2.5
			c-1.2-0.6-2.5-0.9-3.9-0.9c-3.3,0-5.8,1.3-7.5,3.9c-1.3,1.9-2,5-2,9.2c0,5.2,0.8,8.7,2.3,10.6s3.8,2.9,6.6,2.9
			c2.8,0,4.8-0.8,6.2-2.3C649.6,783.4,650.6,781.1,651.2,778.2z"/>
		<path class="st3" d="M681.2,764.2L669,762c1-3.9,3-6.9,5.9-8.9c2.9-2.1,7-3.1,12.3-3.1c6.1,0,10.5,1.1,13.2,3.4
			c2.7,2.3,4.1,5.1,4.1,8.5c0,2-0.5,3.8-1.7,5.5c-1.1,1.6-2.8,3.1-5,4.3c1.8,0.4,3.2,1,4.1,1.6c1.5,1,2.7,2.2,3.6,3.8
			c0.9,1.6,1.3,3.4,1.3,5.6c0,2.7-0.7,5.3-2.1,7.8c-1.4,2.5-3.5,4.4-6.1,5.7c-2.7,1.3-6.2,2-10.5,2c-4.2,0-7.6-0.5-10-1.5
			c-2.4-1-4.5-2.4-6-4.4c-1.6-1.9-2.8-4.3-3.6-7.2l12.9-1.7c0.5,2.6,1.3,4.4,2.4,5.4s2.4,1.5,4.1,1.5c1.7,0,3.2-0.6,4.3-1.9
			s1.7-3,1.7-5.1c0-2.2-0.6-3.8-1.7-5c-1.1-1.2-2.6-1.8-4.5-1.8c-1,0-2.4,0.3-4.2,0.8l0.7-9.2c0.7,0.1,1.3,0.2,1.7,0.2
			c1.7,0,3.1-0.5,4.2-1.6s1.7-2.4,1.7-3.8c0-1.4-0.4-2.5-1.3-3.4c-0.8-0.8-2-1.3-3.5-1.3c-1.5,0-2.8,0.5-3.7,1.4
			C682.2,760.3,681.6,761.9,681.2,764.2z"/>
	</g>
	<g>
		<path class="st3" d="M651.2,1020.4l12.6,3.8c-0.8,3.5-2.2,6.5-4,8.9c-1.8,2.4-4.1,4.2-6.8,5.4c-2.7,1.2-6.1,1.8-10.3,1.8
			c-5.1,0-9.2-0.7-12.4-2.2c-3.2-1.5-6-4.1-8.3-7.8c-2.3-3.7-3.5-8.4-3.5-14.2c0-7.7,2-13.6,6.1-17.7c4.1-4.1,9.9-6.2,17.4-6.2
			c5.9,0,10.5,1.2,13.8,3.6c3.4,2.4,5.8,6,7.5,10.9l-12.7,2.8c-0.4-1.4-0.9-2.5-1.4-3.1c-0.8-1.1-1.8-1.9-3-2.5
			c-1.2-0.6-2.5-0.9-3.9-0.9c-3.3,0-5.8,1.3-7.5,3.9c-1.3,1.9-2,5-2,9.2c0,5.2,0.8,8.7,2.3,10.6s3.8,2.9,6.6,2.9
			c2.8,0,4.8-0.8,6.2-2.3C649.6,1025.5,650.6,1023.3,651.2,1020.4z"/>
		<path class="st3" d="M690.9,1030.7h-23.5v-10.6l23.5-28h11.3v28.6h5.8v10h-5.8v8.7h-11.3V1030.7z M690.9,1020.7V1006l-12.4,14.6
			H690.9z"/>
	</g>
	<g>
		<path class="st3" d="M651.2,1260.5l12.6,3.8c-0.8,3.5-2.2,6.5-4,8.9c-1.8,2.4-4.1,4.2-6.8,5.4c-2.7,1.2-6.1,1.8-10.3,1.8
			c-5.1,0-9.2-0.7-12.4-2.2c-3.2-1.5-6-4.1-8.3-7.8c-2.3-3.7-3.5-8.4-3.5-14.2c0-7.7,2-13.6,6.1-17.7c4.1-4.1,9.9-6.2,17.4-6.2
			c5.9,0,10.5,1.2,13.8,3.6c3.4,2.4,5.8,6,7.5,10.9l-12.7,2.8c-0.4-1.4-0.9-2.5-1.4-3.1c-0.8-1.1-1.8-1.9-3-2.5
			c-1.2-0.6-2.5-0.9-3.9-0.9c-3.3,0-5.8,1.3-7.5,3.9c-1.3,1.9-2,5-2,9.2c0,5.2,0.8,8.7,2.3,10.6s3.8,2.9,6.6,2.9
			c2.8,0,4.8-0.8,6.2-2.3C649.6,1265.7,650.6,1263.4,651.2,1260.5z"/>
		<path class="st3" d="M673.9,1233h30.7v10.3h-20.8l-1.1,7c1.4-0.7,2.9-1.2,4.3-1.5c1.4-0.3,2.8-0.5,4.2-0.5c4.7,0,8.4,1.4,11.3,4.2
			c2.9,2.8,4.3,6.4,4.3,10.6c0,3-0.7,5.9-2.2,8.7c-1.5,2.8-3.6,4.9-6.3,6.3s-6.2,2.2-10.5,2.2c-3.1,0-5.7-0.3-7.9-0.9
			c-2.2-0.6-4.1-1.4-5.6-2.6s-2.8-2.5-3.7-3.9s-1.7-3.3-2.4-5.5l13.1-1.4c0.3,2.1,1.1,3.7,2.2,4.8c1.2,1.1,2.5,1.6,4.2,1.6
			c1.8,0,3.3-0.7,4.5-2c1.2-1.4,1.8-3.4,1.8-6.1c0-2.8-0.6-4.8-1.8-6.1c-1.2-1.3-2.8-1.9-4.7-1.9c-1.2,0-2.5,0.3-3.6,0.9
			c-0.9,0.4-1.8,1.2-2.9,2.4l-11-1.6L673.9,1233z"/>
	</g>
	<g>
		<path class="st3" d="M651.2,1500.6l12.6,3.8c-0.8,3.5-2.2,6.5-4,8.9c-1.8,2.4-4.1,4.2-6.8,5.4c-2.7,1.2-6.1,1.8-10.3,1.8
			c-5.1,0-9.2-0.7-12.4-2.2c-3.2-1.5-6-4.1-8.3-7.8c-2.3-3.7-3.5-8.4-3.5-14.2c0-7.7,2-13.6,6.1-17.7c4.1-4.1,9.9-6.2,17.4-6.2
			c5.9,0,10.5,1.2,13.8,3.6c3.4,2.4,5.8,6,7.5,10.9l-12.7,2.8c-0.4-1.4-0.9-2.5-1.4-3.1c-0.8-1.1-1.8-1.9-3-2.5
			c-1.2-0.6-2.5-0.9-3.9-0.9c-3.3,0-5.8,1.3-7.5,3.9c-1.3,1.9-2,5-2,9.2c0,5.2,0.8,8.7,2.3,10.6s3.8,2.9,6.6,2.9
			c2.8,0,4.8-0.8,6.2-2.3C649.6,1505.8,650.6,1503.6,651.2,1500.6z"/>
		<path class="st3" d="M706.1,1483.6l-12.9,1.6c-0.3-1.8-0.9-3.1-1.7-3.8c-0.8-0.7-1.8-1.1-2.9-1.1c-2.1,0-3.7,1.1-4.9,3.2
			c-0.8,1.5-1.5,4.8-1.9,9.8c1.5-1.6,3.1-2.7,4.8-3.5c1.6-0.8,3.5-1.1,5.6-1.1c4.1,0,7.7,1.5,10.5,4.4c2.9,3,4.3,6.7,4.3,11.3
			c0,3.1-0.7,5.9-2.2,8.4s-3.5,4.5-6,5.8c-2.6,1.3-5.8,2-9.7,2c-4.7,0-8.4-0.8-11.2-2.4s-5.1-4.1-6.7-7.6c-1.7-3.5-2.5-8.1-2.5-13.8
			c0-8.4,1.8-14.6,5.3-18.5c3.5-3.9,8.4-5.9,14.7-5.9c3.7,0,6.6,0.4,8.8,1.3c2.1,0.9,3.9,2.1,5.3,3.8
			C704.3,1479,705.4,1481.1,706.1,1483.6z M682.3,1504.3c0,2.5,0.6,4.5,1.9,5.9c1.3,1.4,2.8,2.1,4.7,2.1c1.7,0,3.1-0.6,4.3-1.9
			c1.1-1.3,1.7-3.2,1.7-5.8c0-2.6-0.6-4.6-1.8-6c-1.2-1.4-2.7-2.1-4.4-2.1c-1.8,0-3.3,0.7-4.5,2
			C682.9,1500,682.3,1501.9,682.3,1504.3z"/>
	</g>
</g>
<g>
	<g>
		<path class="st3" d="M892.4,266.4h21.4c4.2,0,7.6,0.6,10.2,1.7s4.7,2.8,6.4,4.9c1.7,2.1,2.9,4.6,3.7,7.5c0.8,2.8,1.1,5.8,1.1,9
			c0,5-0.6,8.8-1.7,11.6c-1.1,2.7-2.7,5-4.7,6.9c-2,1.9-4.2,3.1-6.5,3.7c-3.2,0.8-6,1.3-8.6,1.3h-21.4V266.4z M906.8,276.9v25.4h3.5
			c3,0,5.1-0.3,6.4-1c1.3-0.7,2.3-1.8,3-3.5c0.7-1.7,1.1-4.4,1.1-8.1c0-4.9-0.8-8.3-2.4-10.1c-1.6-1.8-4.3-2.7-8-2.7H906.8z"/>
		<path class="st3" d="M969.9,265.6v47.3h-13.1v-31c-2.1,1.6-4.2,2.9-6.1,3.9c-2,1-4.5,1.9-7.4,2.9v-10.6c4.4-1.4,7.8-3.1,10.3-5.1
			c2.4-2,4.3-4.4,5.7-7.4H969.9z"/>
	</g>
	<g>
		<path class="st3" d="M892.4,508.6h21.4c4.2,0,7.6,0.6,10.2,1.7s4.7,2.8,6.4,4.9c1.7,2.1,2.9,4.6,3.7,7.5c0.8,2.8,1.1,5.8,1.1,9
			c0,5-0.6,8.8-1.7,11.6c-1.1,2.7-2.7,5-4.7,6.9c-2,1.9-4.2,3.1-6.5,3.7c-3.2,0.8-6,1.3-8.6,1.3h-21.4V508.6z M906.8,519.1v25.4h3.5
			c3,0,5.1-0.3,6.4-1c1.3-0.7,2.3-1.8,3-3.5c0.7-1.7,1.1-4.4,1.1-8.1c0-4.9-0.8-8.3-2.4-10.1c-1.6-1.8-4.3-2.7-8-2.7H906.8z"/>
		<path class="st3" d="M978.5,555.1h-38.8c0.4-3.8,1.8-7.4,4-10.8c2.3-3.4,6.5-7.4,12.7-11.9c3.8-2.8,6.2-5,7.3-6.4
			c1.1-1.5,1.6-2.8,1.6-4.2c0-1.4-0.5-2.6-1.6-3.6s-2.4-1.5-4-1.5c-1.7,0-3,0.5-4,1.6c-1,1-1.8,2.9-2.1,5.5l-12.9-1
			c0.5-3.6,1.4-6.5,2.8-8.5c1.4-2,3.3-3.6,5.7-4.7c2.5-1.1,5.9-1.6,10.2-1.6c4.5,0,8.1,0.5,10.6,1.6c2.5,1,4.5,2.6,6,4.8
			c1.4,2.1,2.2,4.6,2.2,7.2c0,2.8-0.8,5.5-2.5,8.1c-1.7,2.6-4.7,5.4-9.1,8.5c-2.6,1.8-4.3,3.1-5.2,3.8c-0.9,0.7-1.9,1.7-3.1,2.8
			h20.2V555.1z"/>
	</g>
	<g>
		<path class="st3" d="M892.4,750.7h21.4c4.2,0,7.6,0.6,10.2,1.7s4.7,2.8,6.4,4.9c1.7,2.1,2.9,4.6,3.7,7.5c0.8,2.8,1.1,5.8,1.1,9
			c0,5-0.6,8.8-1.7,11.6c-1.1,2.7-2.7,5-4.7,6.9c-2,1.9-4.2,3.1-6.5,3.7c-3.2,0.8-6,1.3-8.6,1.3h-21.4V750.7z M906.8,761.3v25.4h3.5
			c3,0,5.1-0.3,6.4-1c1.3-0.7,2.3-1.8,3-3.5c0.7-1.7,1.1-4.4,1.1-8.1c0-4.9-0.8-8.3-2.4-10.1c-1.6-1.8-4.3-2.7-8-2.7H906.8z"/>
		<path class="st3" d="M953.2,764.2L941,762c1-3.9,3-6.9,5.9-8.9c2.9-2.1,7-3.1,12.3-3.1c6.1,0,10.5,1.1,13.2,3.4
			c2.7,2.3,4.1,5.1,4.1,8.5c0,2-0.5,3.8-1.7,5.5c-1.1,1.6-2.8,3.1-5,4.3c1.8,0.4,3.2,1,4.1,1.6c1.5,1,2.7,2.2,3.6,3.8
			c0.9,1.6,1.3,3.4,1.3,5.6c0,2.7-0.7,5.3-2.1,7.8c-1.4,2.5-3.5,4.4-6.1,5.7c-2.7,1.3-6.2,2-10.5,2c-4.2,0-7.6-0.5-10-1.5
			c-2.4-1-4.5-2.4-6-4.4c-1.6-1.9-2.8-4.3-3.6-7.2l12.9-1.7c0.5,2.6,1.3,4.4,2.4,5.4c1.1,1,2.4,1.5,4.1,1.5c1.7,0,3.2-0.6,4.3-1.9
			c1.2-1.3,1.7-3,1.7-5.1c0-2.2-0.6-3.8-1.7-5c-1.1-1.2-2.6-1.8-4.5-1.8c-1,0-2.4,0.3-4.2,0.8l0.7-9.2c0.7,0.1,1.3,0.2,1.7,0.2
			c1.7,0,3.1-0.5,4.2-1.6c1.1-1.1,1.7-2.4,1.7-3.8c0-1.4-0.4-2.5-1.3-3.4c-0.8-0.8-2-1.3-3.5-1.3c-1.5,0-2.8,0.5-3.7,1.4
			C954.2,760.3,953.5,761.9,953.2,764.2z"/>
	</g>
	<g>
		<path class="st3" d="M892.4,992.9h21.4c4.2,0,7.6,0.6,10.2,1.7s4.7,2.8,6.4,4.9c1.7,2.1,2.9,4.6,3.7,7.5c0.8,2.8,1.1,5.8,1.1,9
			c0,5-0.6,8.8-1.7,11.6c-1.1,2.7-2.7,5-4.7,6.9c-2,1.9-4.2,3.1-6.5,3.7c-3.2,0.8-6,1.3-8.6,1.3h-21.4V992.9z M906.8,1003.4v25.4
			h3.5c3,0,5.1-0.3,6.4-1c1.3-0.7,2.3-1.8,3-3.5c0.7-1.7,1.1-4.4,1.1-8.1c0-4.9-0.8-8.3-2.4-10.1c-1.6-1.8-4.3-2.7-8-2.7H906.8z"/>
		<path class="st3" d="M962.9,1030.7h-23.5v-10.6l23.5-28h11.3v28.6h5.8v10h-5.8v8.7h-11.3V1030.7z M962.9,1020.7V1006l-12.4,14.6
			H962.9z"/>
	</g>
	<g>
		<path class="st3" d="M892.4,1233h21.4c4.2,0,7.6,0.6,10.2,1.7s4.7,2.8,6.4,4.9c1.7,2.1,2.9,4.6,3.7,7.5c0.8,2.8,1.1,5.8,1.1,9
			c0,5-0.6,8.8-1.7,11.6c-1.1,2.7-2.7,5-4.7,6.9c-2,1.9-4.2,3.1-6.5,3.7c-3.2,0.8-6,1.3-8.6,1.3h-21.4V1233z M906.8,1243.5v25.4h3.5
			c3,0,5.1-0.3,6.4-1c1.3-0.7,2.3-1.8,3-3.5c0.7-1.7,1.1-4.4,1.1-8.1c0-4.9-0.8-8.3-2.4-10.1c-1.6-1.8-4.3-2.7-8-2.7H906.8z"/>
		<path class="st3" d="M945.9,1233h30.7v10.3h-20.8l-1.1,7c1.4-0.7,2.9-1.2,4.3-1.5c1.4-0.3,2.8-0.5,4.2-0.5c4.7,0,8.4,1.4,11.3,4.2
			c2.9,2.8,4.3,6.4,4.3,10.6c0,3-0.7,5.9-2.2,8.7c-1.5,2.8-3.6,4.9-6.3,6.3s-6.2,2.2-10.5,2.2c-3.1,0-5.7-0.3-7.9-0.9
			c-2.2-0.6-4.1-1.4-5.6-2.6s-2.8-2.5-3.7-3.9c-1-1.5-1.7-3.3-2.4-5.5l13.1-1.4c0.3,2.1,1.1,3.7,2.2,4.8c1.2,1.1,2.5,1.6,4.2,1.6
			c1.8,0,3.3-0.7,4.5-2c1.2-1.4,1.8-3.4,1.8-6.1c0-2.8-0.6-4.8-1.8-6.1c-1.2-1.3-2.8-1.9-4.7-1.9c-1.2,0-2.5,0.3-3.6,0.9
			c-0.9,0.4-1.8,1.2-2.9,2.4l-11-1.6L945.9,1233z"/>
	</g>
	<g>
		<path class="st3" d="M892.4,1473.1h21.4c4.2,0,7.6,0.6,10.2,1.7s4.7,2.8,6.4,4.9c1.7,2.1,2.9,4.6,3.7,7.5c0.8,2.8,1.1,5.8,1.1,9
			c0,5-0.6,8.8-1.7,11.6c-1.1,2.7-2.7,5-4.7,6.9c-2,1.9-4.2,3.1-6.5,3.7c-3.2,0.8-6,1.3-8.6,1.3h-21.4V1473.1z M906.8,1483.7v25.4
			h3.5c3,0,5.1-0.3,6.4-1c1.3-0.7,2.3-1.8,3-3.5c0.7-1.7,1.1-4.4,1.1-8.1c0-4.9-0.8-8.3-2.4-10.1c-1.6-1.8-4.3-2.7-8-2.7H906.8z"/>
		<path class="st3" d="M978.1,1483.6l-12.9,1.6c-0.3-1.8-0.9-3.1-1.7-3.8c-0.8-0.7-1.8-1.1-2.9-1.1c-2.1,0-3.7,1.1-4.9,3.2
			c-0.8,1.5-1.5,4.8-1.9,9.8c1.5-1.6,3.1-2.7,4.8-3.5c1.6-0.8,3.5-1.1,5.6-1.1c4.1,0,7.7,1.5,10.5,4.4c2.9,3,4.3,6.7,4.3,11.3
			c0,3.1-0.7,5.9-2.2,8.4c-1.5,2.5-3.5,4.5-6,5.8c-2.6,1.3-5.8,2-9.7,2c-4.7,0-8.4-0.8-11.2-2.4c-2.8-1.6-5.1-4.1-6.7-7.6
			c-1.7-3.5-2.5-8.1-2.5-13.8c0-8.4,1.8-14.6,5.3-18.5c3.5-3.9,8.4-5.9,14.7-5.9c3.7,0,6.6,0.4,8.8,1.3c2.1,0.9,3.9,2.1,5.3,3.8
			C976.2,1479,977.3,1481.1,978.1,1483.6z M954.3,1504.3c0,2.5,0.6,4.5,1.9,5.9c1.3,1.4,2.8,2.1,4.7,2.1c1.7,0,3.1-0.6,4.3-1.9
			c1.1-1.3,1.7-3.2,1.7-5.8c0-2.6-0.6-4.6-1.8-6c-1.2-1.4-2.7-2.1-4.4-2.1c-1.8,0-3.3,0.7-4.5,2
			C954.9,1500,954.3,1501.9,954.3,1504.3z"/>
	</g>
</g>
</svg>
